<svg width="121" height="146" viewBox="0 0 121 146" fill="none" xmlns="http://www.w3.org/2000/svg">
<path d="M9.67535 53.2114H16.9356V72.5723H9.67535C7.00549 72.5643 4.84312 70.4019 4.83514 67.7321V58.0517C4.84312 55.3818 7.00549 53.2194 9.67535 53.2114Z" fill="white"/>
<path d="M21.7759 53.2114H38.7166V72.5723H21.7759V53.2114Z" fill="white"/>
<path d="M43.5567 53.2114H60.4974V72.5723H43.5567V53.2114Z" fill="white"/>
<path d="M65.3377 53.2114H82.2784V72.5723H65.3377V53.2114Z" fill="white"/>
<path d="M87.1186 53.2114H104.059V72.5723H87.1186V53.2114Z" fill="white"/>
<path d="M121 58.0517V67.7321C120.992 70.4019 118.83 72.5643 116.16 72.5723H108.9V53.2114H116.16C118.83 53.2194 120.992 55.3818 121 58.0517Z" fill="white"/>
<path d="M29.2782 77.4124L36.2965 145.175H30.222C25.3858 145.177 21.2875 141.615 20.6142 136.826L12.4343 77.4124H29.2782Z" fill="white"/>
<path d="M48.5422 77.4124L53.2372 145.175H41.1367C41.1367 145.078 41.1125 145.03 41.1125 144.933L34.1184 77.4124H48.5422Z" fill="white"/>
<path d="M53.4066 77.4124H72.4286L67.7578 145.006V145.175H58.0774V145.006L53.4066 77.4124Z" fill="white"/>
<path d="M91.7168 77.4124L84.7227 144.933C84.7227 145.03 84.6985 145.078 84.6985 145.175H72.598L77.293 77.4124H91.7168Z" fill="white"/>
<path d="M113.401 77.4124L105.221 136.826C104.548 141.615 100.449 145.177 95.6131 145.175H89.5387L96.557 77.4124H113.401Z" fill="white"/>
<path d="M45.684 23.6039C41.5923 18.7525 35.2002 16.4881 28.967 17.6817C22.7338 18.8754 17.6305 23.3412 15.6207 29.3611C13.6109 35.381 15.0076 42.0169 19.2735 46.7159C19.6849 47.1833 19.9075 47.7873 19.8978 48.41H61.5236C60.7758 43.5987 61.6412 38.6752 63.9848 34.4073C60.9184 31.5881 57.1614 29.6295 53.0944 28.7297C50.0728 28.002 47.4308 26.1745 45.684 23.6039ZM23.3925 38.1003C22.6637 38.7538 21.613 38.904 20.7304 38.4807C19.8477 38.0575 19.307 37.1442 19.3603 36.1668C19.4136 35.1893 20.0504 34.3403 20.9739 34.0155C21.8973 33.6908 22.9254 33.9543 23.5788 34.6831C24.4709 35.6783 24.3874 37.2081 23.3925 38.1003ZM28.2327 30.84C27.5039 31.4935 26.4532 31.6437 25.5706 31.2204C24.6879 30.7972 24.1472 29.8839 24.2005 28.9065C24.2538 27.929 24.8906 27.08 25.8141 26.7552C26.7375 26.4305 27.7656 26.694 28.419 27.4228C29.3111 28.418 29.2277 29.9478 28.2327 30.84ZM33.0729 40.5204C32.3441 41.1739 31.2934 41.3241 30.4108 40.9008C29.5281 40.4776 28.9874 39.5643 29.0407 38.5869C29.094 37.6094 29.7308 36.7604 30.6543 36.4356C31.5777 36.1109 32.6058 36.3744 33.2592 37.1032C34.1513 38.0984 34.0679 39.6282 33.0729 40.5204Z" fill="white"/>
<path d="M19.2396 16.7671L11.0548 7.63852C10.1627 6.6434 10.2462 5.11356 11.2412 4.22134C11.7816 3.74052 12.0767 3.04182 12.0446 2.31914C12.0001 1.25366 11.2633 0.342926 10.2306 0.0767724C9.19797 -0.189381 8.1128 0.251782 7.55877 1.16299C7.00474 2.07419 7.11245 3.24065 7.82397 4.03499C8.69547 5.0324 8.60328 6.5451 7.61709 7.42928C6.63091 8.31347 5.11716 8.24063 4.22044 7.26583C3.50782 6.47268 2.36007 6.23937 1.39435 6.69136C0.428628 7.14334 -0.127501 8.1741 0.0250001 9.2294C0.177501 10.2847 1.0027 11.1158 2.05687 11.2759C2.77061 11.3826 3.49473 11.1652 4.03167 10.683C4.50774 10.2498 5.13902 10.0281 5.7814 10.0683C6.42222 10.1033 7.02288 10.3915 7.45127 10.8694L15.6336 19.998C16.7157 18.7943 17.9247 17.711 19.2396 16.7671Z" fill="white"/>
<path d="M117.227 16.167C115.064 9.8918 110.4 4.79212 104.342 2.07954C96.2445 -1.46062 86.8657 -0.349274 79.8193 4.98543C72.773 10.3201 69.1587 19.0457 70.3691 27.8004C70.6896 31.0508 69.8737 34.3118 68.0603 37.0282C66.3024 40.3993 65.6996 44.2542 66.3444 48.001C66.3566 48.1362 66.3566 48.2723 66.3444 48.4075H103.449C103.395 47.6555 103.724 46.9268 104.326 46.4715C104.572 46.288 104.833 46.1261 105.107 45.9874C109.731 43.6655 113.5 39.9374 115.872 35.339C118.955 29.4107 119.446 22.4701 117.227 16.167ZM91.2666 14.3785C91.7139 13.5076 92.6418 12.9919 93.6175 13.0721C94.5933 13.1522 95.4246 13.8123 95.7238 14.7445C96.023 15.6767 95.731 16.6973 94.9842 17.3303C94.2373 17.9633 93.1826 18.0839 92.3121 17.636C91.1244 17.0247 90.6564 15.5668 91.2666 14.3785ZM79.2097 27.2268C78.5981 28.4151 77.1392 28.8827 75.9508 28.2714C74.7624 27.66 74.2945 26.2011 74.9056 25.0126C75.5168 23.8241 76.9756 23.356 78.1642 23.9669C78.7353 24.2605 79.1663 24.7689 79.3623 25.3803C79.5584 25.9917 79.5035 26.6559 79.2097 27.2268ZM78.6749 17.4181C77.5336 16.723 77.1717 15.2344 77.8665 14.0929C79.4399 11.5298 81.5957 9.37399 84.1588 7.80066C85.2882 7.18612 86.7009 7.56195 87.3756 8.65643C88.0504 9.75091 87.7515 11.1819 86.6951 11.9148C84.7764 13.0836 83.165 14.6942 81.9952 16.6123C81.3001 17.7535 79.8115 18.1154 78.67 17.4206L78.6749 17.4181ZM85.6036 35.961C84.992 37.1492 83.5331 37.6169 82.3447 37.0055C81.1563 36.3942 80.6884 34.9353 81.2995 33.7468C81.9107 32.5583 83.3695 32.0901 84.5581 32.7011C85.1292 32.9946 85.5602 33.503 85.7563 34.1144C85.9523 34.7258 85.8974 35.3901 85.6036 35.961ZM88.9917 24.1025C88.5445 24.9734 87.6166 25.489 86.6409 25.4089C85.6651 25.3288 84.8338 24.6687 84.5346 23.7365C84.2354 22.8043 84.5273 21.7837 85.2742 21.1507C86.0211 20.5177 87.0757 20.397 87.9463 20.845C89.1275 21.4569 89.5934 22.9075 88.9893 24.0928L88.9917 24.1025ZM95.3832 32.8366C94.7711 34.0247 93.3117 34.4917 92.1235 33.8795C90.9354 33.2674 90.4684 31.808 91.0805 30.6198C91.6926 29.4317 93.152 28.9647 94.3402 29.5767C95.5219 30.1895 95.9869 31.6417 95.3808 32.8269L95.3832 32.8366ZM99.8144 24.2283C99.3672 25.0992 98.4393 25.6149 97.4636 25.5347C96.4878 25.4546 95.6565 24.7945 95.3573 23.8623C95.0581 22.9301 95.35 21.9095 96.0969 21.2765C96.8438 20.6435 97.8984 20.5229 98.769 20.9709C99.9502 21.5828 100.416 23.0334 99.812 24.2186L99.8144 24.2283ZM100.357 10.9178C98.6378 10.1474 96.7801 9.73563 94.8968 9.7077C93.5602 9.693 92.4886 8.59756 92.5033 7.26098C92.518 5.9244 93.6134 4.8528 94.95 4.8675C97.4986 4.90578 100.013 5.46327 102.339 6.50591C103.128 6.85997 103.669 7.60827 103.757 8.46894C103.845 9.32961 103.467 10.1719 102.766 10.6785C102.064 11.1851 101.146 11.2791 100.357 10.925V10.9178ZM107.447 19.9786C106.836 21.1669 105.377 21.6345 104.189 21.0232C103 20.4118 102.532 18.9529 103.143 17.7644C103.755 16.5759 105.213 16.1078 106.402 16.7187C106.973 17.0123 107.404 17.5207 107.6 18.1321C107.796 18.7435 107.741 19.4077 107.447 19.9786Z" fill="white"/>
</svg>
