<svg width="142" height="98" viewBox="0 0 142 98" fill="none" xmlns="http://www.w3.org/2000/svg">
<path d="M62.4572 0.0797386C47.5172 1.40542 33.896 5.47086 23.6945 11.6721C19.9994 13.9111 17.1592 16.1058 14.3625 18.8603C8.20395 24.929 5.0015 31.4396 4.68271 38.5246C4.58127 40.9845 4.76965 42.266 5.42173 43.4739C5.98687 44.5049 6.2477 44.6375 8.45029 44.8585C11.2325 45.1531 33.5772 45.2856 83.9614 45.2856L134.375 45.3004L135.07 44.8437C135.983 44.2545 136.606 43.518 137.055 42.5164C137.403 41.7357 137.418 41.6621 137.331 39.1286C137.186 34.8127 136.548 32.1171 134.838 28.5673C133.867 26.5493 132.375 24.1483 131.216 22.7637C130.056 21.3791 126.506 17.785 124.883 16.3562C119.348 11.5101 110.595 7.00276 101.133 4.13044C94.9308 2.24503 86.5262 0.639473 80.7154 0.227036C77.7883 0.0208168 64.4279 -0.0822906 62.4572 0.0797386ZM65.5437 4.42504C66.2682 4.67545 67.0362 5.22045 67.2536 5.63289C67.6158 6.33992 66.7609 7.19425 65.5002 7.38574C64.1671 7.59196 62.0369 6.9733 61.5298 6.23681C61.1965 5.76546 61.2399 5.45613 61.7036 4.92585C62.4137 4.11572 64.0222 3.89477 65.5437 4.42504ZM81.5704 5.22045C83.715 5.89803 84.9757 7.31209 84.0193 7.94547C83.1789 8.49048 81.5704 8.34318 80.0344 7.59196C78.9476 7.04695 78.4114 6.31046 78.6723 5.736C78.8606 5.30883 79.5707 4.95531 80.2373 4.94059C80.4836 4.94059 81.0777 5.05843 81.5704 5.22045ZM49.7633 7.00276C50.4444 7.25317 50.1545 8.41683 49.2416 9.10913C47.9954 10.0518 46.5029 10.5085 45.5175 10.2433C44.5756 9.99292 44.4307 9.389 45.0973 8.44629C45.8653 7.32682 48.5171 6.51668 49.7633 7.00276ZM99.0172 8.53467C100.742 9.16805 100.394 10.5379 98.3796 10.9651C97.4522 11.1713 95.7713 11.1713 95.2496 10.9651C94.1918 10.5674 93.8585 9.60995 94.5975 9.0944C95.0033 8.81453 95.6264 8.5494 96.1481 8.43156C96.7856 8.28426 98.4955 8.35791 99.0172 8.53467ZM75.3104 12.3939C76.0929 12.9831 75.8176 13.6901 74.4989 14.4119C72.4123 15.5755 69.8474 15.3251 69.8474 13.9847C69.8474 13.4986 70.9197 12.6443 71.9486 12.3055C73.1223 11.9078 74.7308 11.952 75.3104 12.3939ZM34.1278 13.1009C34.7509 13.3661 35.0262 13.8963 34.7944 14.3382C34.3742 15.1484 32.7367 15.9438 31.2442 16.0763C30.5051 16.15 30.2588 16.1058 29.7082 15.8112C28.9112 15.3988 28.8242 15.0305 29.3604 14.3824C30.3313 13.204 32.8092 12.5412 34.1278 13.1009ZM59.9213 13.8374C62.1384 14.4413 63.3411 15.9732 62.1529 16.7097C60.414 17.785 56.6609 16.5182 56.6609 14.8685C56.6609 14.5003 56.9942 14.1615 57.6752 13.8669C58.3128 13.587 58.9939 13.5723 59.9213 13.8374ZM89.1635 14.7212C89.4244 14.8243 89.7432 15.06 89.8881 15.222C90.4967 15.9143 89.6272 17.0927 87.9028 17.9176C85.7727 18.9487 83.7875 18.0354 84.5555 16.3709C85.1931 15.0158 87.729 14.1025 89.1635 14.7212ZM44.0105 15.605C45.474 16.3562 46.2276 17.3578 45.9957 18.2858C45.7349 19.3464 42.8367 19.0812 41.3007 17.8734C40.3443 17.1074 40.1849 16.2236 40.8805 15.5166C41.3007 15.0894 41.3587 15.0747 42.2861 15.1336C42.9382 15.1778 43.5033 15.3399 44.0105 15.605ZM113.218 15.6197C116.029 16.7686 116.189 18.3447 113.479 18.3447C112.247 18.3447 111.059 17.9323 110.363 17.2547C108.654 15.6197 110.566 14.5297 113.218 15.6197ZM101.205 17.6082C102.06 17.947 103.075 18.8308 103.22 19.3758C103.277 19.6262 103.191 19.8177 102.872 20.1565C102.452 20.5689 102.394 20.5837 101.539 20.51C99.9881 20.3922 98.1188 19.5379 97.5971 18.7277C96.8581 17.5788 99.2201 16.857 101.205 17.6082Z" fill="white"/>
<path d="M8.55173 50.8093V54.1088L7.87066 54.5212C6.74039 55.184 6.26219 55.6259 5.39275 56.7896C3.79877 58.9254 2.42216 62.166 2.23378 64.2576C2.11785 65.5833 2.40767 66.5407 3.16118 67.292C3.79877 67.9253 4.29146 68.1316 5.1609 68.1316H5.79849V69.5898C5.79849 70.3852 5.84196 71.431 5.88544 71.9171L5.98687 72.8009L5.13192 72.904C3.79877 73.0661 3.21915 73.287 2.53808 73.9057C1.91498 74.4654 1.71211 74.8926 1.53822 75.9384C1.49475 76.233 1.20494 76.7633 0.871652 77.161C-0.316586 78.6487 -0.287604 80.5341 0.944106 81.6094C1.37883 81.9923 1.48026 82.1986 1.61068 83.0087C1.85702 84.5553 2.61054 85.6012 4.00164 86.2935L4.61025 86.5881L4.66822 89.8434C4.75516 93.953 4.8566 94.3065 6.52303 96.0152C8.42131 97.93 7.43594 97.7827 18.7677 97.9006C31.3601 98.0331 110.624 98.0331 123.318 97.9006L133.099 97.7975L133.896 97.3703C134.896 96.8106 136.331 95.367 136.765 94.4685C137.244 93.4669 137.345 92.5978 137.432 88.2673C137.476 86.0872 137.591 84.1871 137.664 84.0398C137.765 83.8483 138.041 83.7452 138.635 83.6715C140.2 83.5095 140.388 83.4506 141.04 82.8614C141.852 82.1249 142.069 81.521 141.982 80.1953C141.924 79.4146 141.823 79.0758 141.547 78.7076C140.968 77.9269 140.852 77.6176 140.721 76.5276C140.461 74.4654 139.446 73.6847 136.186 72.9924C135.215 72.8009 135.229 72.8598 135.563 70.9302C135.795 69.5456 135.983 69.31 136.751 69.31C138.229 69.31 139.504 68.0285 139.838 66.202C140.287 63.801 138.273 59.9123 134.664 56.2299L132.737 54.2561V50.8829V47.5098H70.6444H8.55173V50.8093ZM57.7477 56.5686C72.5717 56.7012 95.496 56.8927 108.683 56.9958L132.665 57.202L133.679 58.292C134.867 59.5735 136.432 61.8714 137.113 63.3444C137.505 64.1987 137.591 64.5522 137.591 65.3771C137.591 66.2609 137.548 66.4229 137.244 66.6733C136.737 67.0857 136.128 67.0268 132.867 66.2167C126.55 64.6701 110.537 61.5915 105.9 61.0612C102.988 60.7225 97.0899 60.8845 92.6703 61.4442C87.0913 62.1365 85.0771 62.6668 77.455 65.4065C72.6151 67.1447 71.9051 67.3656 70.3981 67.4834C68.862 67.616 67.4564 67.292 63.4715 65.8484C58.5736 64.0661 55.4726 63.1971 50.8501 62.3133C43.6482 60.9287 33.128 60.1333 26.5927 60.472C18.9126 60.855 14.4494 61.8567 8.24742 64.5375C6.68243 65.2151 5.23335 65.7748 5.01599 65.7748C4.16104 65.7748 4.2335 64.2723 5.20437 61.7241C6.16076 59.2053 7.95761 56.8485 9.26177 56.4213C10.0153 56.1709 8.85603 56.1709 57.7477 56.5686ZM22.115 74.1708C23.5931 74.3623 25.303 74.4654 26.9114 74.4654C29.0416 74.4654 31.6644 74.6716 33.4757 74.9957C33.7511 75.0546 39.9531 75.143 47.2419 75.2019C59.9937 75.305 60.5589 75.3197 61.95 75.6291C63.8483 76.0415 64.6308 76.0268 66.9638 75.5259C68.9055 75.1282 68.92 75.1282 74.7018 75.143C80.3387 75.1577 87.4101 75.4228 94.0469 75.8795C99.7852 76.2772 103.046 76.2919 108.32 75.9531C116.116 75.4523 117.319 75.4228 121.782 75.7174C125.868 75.9826 128.752 75.9531 131.216 75.6585C131.853 75.5701 133.433 75.5112 134.737 75.5112C137.316 75.4965 137.881 75.6143 138.316 76.2919C138.809 77.0431 138.229 77.4997 136.592 77.6618L135.447 77.7796L137.055 78.4866C137.939 78.8843 138.925 79.3999 139.258 79.6356C139.751 79.9891 139.838 80.1511 139.838 80.5783C139.838 81.0054 139.765 81.1233 139.446 81.2559C138.925 81.4621 137.331 81.3295 135.925 80.9613C135.331 80.814 134.824 80.6961 134.809 80.7108C134.795 80.7256 134.969 81.0349 135.201 81.3884C135.679 82.1102 135.751 82.7288 135.418 83.0087C135.027 83.3328 133.389 83.0971 131.433 82.4195C128.491 81.4179 127.68 81.5357 125.709 83.318C124.434 84.467 123.941 84.7763 123.347 84.7763C122.652 84.7763 122.188 84.4817 120.463 82.9203C118.391 81.0349 118.072 80.8876 116.435 80.8876C114.885 80.8876 114.595 81.0054 112.682 82.5668C111.957 83.1413 111.189 83.7157 110.943 83.8483C110.233 84.2313 109.248 84.0251 107.016 83.0529C104.842 82.0955 103.901 81.8303 102.683 81.8303C101.626 81.8303 101.147 82.0218 99.4809 83.156C96.9305 84.8941 95.9162 85.2771 94.8294 84.9236C94.5106 84.8205 93.047 84.1576 91.569 83.4359C90.0909 82.7141 88.5114 81.9923 88.0332 81.8303C86.2944 81.2264 84.6279 81.5652 82.5847 82.9498C81.9327 83.4064 81.0632 83.9367 80.6575 84.1429C79.1939 84.9089 77.6289 84.5406 75.4263 82.9203C72.2529 80.593 70.3981 80.048 68.6882 80.9465C68.4128 81.0938 67.6593 81.6683 67.0217 82.228C65.5582 83.4801 64.5873 84.1134 63.5584 84.4817C62.1528 84.9972 61.95 84.9236 59.559 83.0087C57.5303 81.3884 56.7043 80.9465 55.748 80.9465C54.7336 80.9465 54.2409 81.2411 52.8643 82.6552C51.5167 84.0545 50.5603 84.629 49.6039 84.629C48.7924 84.629 48.1693 84.3049 45.9377 82.6994C42.1702 80.0185 41.3442 79.9891 38.475 82.4932C37.765 83.1265 36.8231 83.8778 36.3884 84.1724C35.6928 84.6437 35.4899 84.7026 34.7075 84.7026C33.9105 84.7026 33.7511 84.6437 33.1714 84.2018C32.8237 83.922 32.0701 83.1413 31.4905 82.4784C30.8095 81.7125 30.2153 81.1675 29.8096 80.976C27.9548 80.0922 26.3173 80.4899 22.7526 82.7141C21.9991 83.2002 21.0862 83.6568 20.7239 83.7599C19.5792 84.0693 19.4342 84.0103 15.8695 81.7714C15.3913 81.4768 14.7537 81.1675 14.4639 81.0791C13.7104 80.8729 13.0004 81.2117 11.5223 82.4784C10.8847 83.0234 9.94283 83.6715 9.42117 83.9367C8.52275 84.3933 8.40682 84.408 6.81284 84.3933C5.04498 84.3933 4.3784 84.2018 4.05961 83.6126C3.66836 82.8614 4.08859 82.2575 5.53766 81.521C5.98687 81.2853 6.39261 81.0496 6.43608 80.976C6.47956 80.9023 5.84196 80.7256 5.03048 80.593C2.71197 80.1806 2.01642 79.7829 2.24827 79.0169C2.37869 78.6045 3.34956 78.192 4.46535 78.0595C4.95803 78.0153 5.36377 77.9122 5.36377 77.868C5.36377 77.8091 5.04498 77.4408 4.65373 77.0578C3.85674 76.2624 3.69734 75.8942 4.00164 75.5849C4.27697 75.2903 5.03049 75.2313 9.85589 75.0546C13.1598 74.922 14.3915 74.8336 15.2899 74.6127C16.3767 74.3476 17.8258 74.0971 18.985 73.9793C19.2604 73.9499 19.5647 73.9057 19.6516 73.9057C19.7241 73.8909 20.8398 74.0088 22.115 74.1708Z" fill="white"/>
</svg>
