<svg width="145" height="124" viewBox="0 0 145 124" fill="none" xmlns="http://www.w3.org/2000/svg">
<path d="M48.7975 86.9773L48.9505 87.5897C49.5321 87.6044 50.094 87.804 50.5544 88.1596C51.0149 88.5152 51.3501 89.0083 51.5113 89.5674C51.6725 90.1264 51.6513 90.7223 51.4509 91.2685C51.2504 91.8146 50.8811 92.2827 50.3966 92.6048C50.8039 93.3664 51.3671 94.0337 52.0494 94.5632C52.7318 95.0928 53.518 95.4726 54.3569 95.6781V83.4781L47.4976 78.3336C43.4683 75.2994 38.8106 73.2061 33.8664 72.2076C28.9222 71.2092 23.8171 71.3308 18.9261 72.5637C15.871 73.3196 13.0635 74.8532 10.7766 77.0153C8.48973 79.1775 6.80127 81.8947 5.87543 84.9026H46.1405C46.7513 84.9027 47.3446 85.1068 47.826 85.4828C48.3074 85.8587 48.6494 86.3847 48.7975 86.9773ZM26.9689 82.5062C26.4273 82.5062 25.8977 82.3456 25.4473 82.0446C24.997 81.7437 24.6459 81.3159 24.4386 80.8155C24.2313 80.315 24.1771 79.7644 24.2828 79.2331C24.3884 78.7018 24.6493 78.2138 25.0323 77.8308C25.4153 77.4477 25.9034 77.1869 26.4346 77.0812C26.9659 76.9755 27.5166 77.0298 28.017 77.2371C28.5175 77.4444 28.9452 77.7954 29.2462 78.2458C29.5471 78.6962 29.7077 79.2257 29.7077 79.7674C29.7077 80.4938 29.4192 81.1904 28.9056 81.704C28.3919 82.2176 27.6953 82.5062 26.9689 82.5062Z" fill="white"/>
<path d="M79.3189 83.0215C79.1302 83.5555 78.7805 84.0179 78.318 84.3449C77.8555 84.672 77.303 84.8476 76.7366 84.8476H59.8345V95.8579H67.9286C69.966 95.3478 72.1016 95.3812 74.1221 95.9547L87.8554 82.2217L88.0704 80.7178C87.3978 80.1309 86.5916 79.7176 85.7224 79.5141C84.8532 79.3105 83.9474 79.3229 83.0841 79.5502C82.2208 79.7774 81.4263 80.2126 80.77 80.8177C80.1136 81.4228 79.6154 82.1794 79.3189 83.0215Z" fill="white"/>
<path d="M37.9542 67.5695C38.1736 63.6387 39.8392 59.9279 42.6303 57.1515L46.9439 52.8379C47.1983 52.5835 47.5002 52.3818 47.8325 52.2441C48.1648 52.1065 48.5209 52.0357 48.8806 52.0357C49.2403 52.0357 49.5964 52.1065 49.9287 52.2441C50.261 52.3818 50.5629 52.5835 50.8173 52.8379C51.0716 53.0922 51.2733 53.3941 51.411 53.7264C51.5486 54.0587 51.6195 54.4149 51.6195 54.7745C51.6195 55.1342 51.5486 55.4904 51.411 55.8226C51.2733 56.1549 51.0716 56.4569 50.8173 56.7112L46.5054 61.0248C45.5185 62.0058 44.7361 63.1729 44.2033 64.4584C43.6706 65.7438 43.3981 67.1222 43.4016 68.5137C43.4018 68.8766 43.4203 69.2393 43.4571 69.6003C46.0485 70.7832 48.5048 72.2421 50.7834 73.9516L58.0069 79.3699H74.9947C76.3456 77.0298 78.5138 75.2716 81.0824 74.433C83.6511 73.5945 86.439 73.7348 88.9105 74.827L89.273 72.2888C86.1125 70.0902 82.4154 68.7888 78.5746 68.5229L75.816 72.715C75.4165 73.3217 74.7923 73.7449 74.0808 73.8914C73.3693 74.0379 72.6287 73.8958 72.022 73.4963C71.4153 73.0967 70.9922 72.4726 70.8457 71.7611C70.6992 71.0496 70.8413 70.309 71.2408 69.7023L72.0525 68.4699H66.7156L63.5855 72.8105C63.3752 73.1022 63.1094 73.3497 62.8034 73.5387C62.4974 73.7277 62.1572 73.8547 61.8022 73.9122C61.4472 73.9697 61.0843 73.9568 60.7342 73.8741C60.3842 73.7914 60.0539 73.6405 59.7622 73.4302C59.4704 73.2198 59.223 72.9541 59.034 72.6481C58.8449 72.3421 58.718 72.0019 58.6605 71.6468C58.603 71.2918 58.6159 70.9289 58.6986 70.5789C58.7813 70.2289 58.9322 69.8986 59.1425 69.6068L71.3373 53.1326C71.5531 52.8449 71.8235 52.6025 72.133 52.4192C72.4425 52.236 72.785 52.1155 73.1411 52.0646C73.4971 52.0138 73.8597 52.0335 74.2081 52.1228C74.5565 52.2121 74.8839 52.3691 75.1716 52.5849C75.4594 52.8007 75.7018 53.071 75.885 53.3805C76.0683 53.69 76.1888 54.0325 76.2396 54.3886C76.2905 54.7446 76.2707 55.1072 76.1815 55.4556C76.0922 55.804 75.9352 56.1314 75.7194 56.4192L70.7896 62.9923H77.1357C81.81 62.9989 86.4012 64.2285 90.4531 66.5589C91.2557 63.6318 92.3599 60.7959 93.7479 58.0967C89.8309 52.7397 84.4503 48.6277 78.2528 46.2548C69.4709 42.8908 60.0452 41.5431 50.6725 42.3113L43.2876 42.9275C37.0983 43.4427 31.2904 46.1292 26.8902 50.5123C22.4901 54.8953 19.781 60.6928 19.2417 66.88C25.4434 65.5961 31.8638 65.8327 37.9542 67.5695ZM64.9655 46.9077C65.5072 46.9077 66.0367 47.0683 66.4871 47.3693C66.9375 47.6702 67.2886 48.0979 67.4959 48.5984C67.7031 49.0988 67.7574 49.6495 67.6517 50.1808C67.546 50.7121 67.2852 51.2001 66.9022 51.5831C66.5191 51.9661 66.0311 52.227 65.4998 52.3327C64.9686 52.4383 64.4179 52.3841 63.9174 52.1768C63.417 51.9695 62.9893 51.6185 62.6883 51.1681C62.3874 50.7177 62.2267 50.1882 62.2267 49.6465C62.2267 48.9204 62.5151 48.224 63.0283 47.7105C63.5416 47.1969 64.2377 46.9081 64.9638 46.9077H64.9655ZM32.4465 54.7759C32.9881 54.7759 33.5177 54.9365 33.9681 55.2375C34.4184 55.5384 34.7695 55.9662 34.9768 56.4666C35.1841 56.9671 35.2383 57.5177 35.1326 58.049C35.0269 58.5803 34.7661 59.0683 34.3831 59.4513C34.0001 59.8343 33.512 60.0952 32.9808 60.2009C32.4495 60.3065 31.8988 60.2523 31.3984 60.045C30.8979 59.8377 30.4702 59.4867 30.1692 59.0363C29.8683 58.5859 29.7077 58.0564 29.7077 57.5147C29.7077 56.7883 29.9962 56.0917 30.5098 55.5781C31.0235 55.0644 31.7201 54.7759 32.4465 54.7759Z" fill="white"/>
<path d="M85.9492 110.271L99.6349 96.585L90.4377 87.3878L76.752 101.073C76.3515 101.474 75.8367 101.74 75.2785 101.836C74.7202 101.932 74.146 101.852 73.6349 101.608C72.7676 101.193 71.8189 100.975 70.8572 100.97C69.8955 100.965 68.9447 101.173 68.0732 101.58C67.2017 101.986 66.4312 102.581 65.8172 103.322C65.2032 104.062 64.7611 104.929 64.5225 105.861C64.2839 106.792 64.255 107.765 64.4376 108.71C64.6203 109.654 65.01 110.546 65.5788 111.321C66.1476 112.097 66.8813 112.736 67.7271 113.194C68.5728 113.652 69.5096 113.917 70.4699 113.969C71.143 114.006 71.7788 114.29 72.2556 114.767C72.7323 115.244 73.0164 115.88 73.0536 116.553C73.1063 117.513 73.3713 118.449 73.8293 119.295C74.2874 120.14 74.9273 120.874 75.7028 121.442C76.4783 122.011 77.3702 122.4 78.3143 122.583C79.2584 122.765 80.2312 122.736 81.1627 122.497C82.0942 122.259 82.9612 121.816 83.7012 121.203C84.4413 120.589 85.0361 119.818 85.4428 118.947C85.8494 118.076 86.0578 117.125 86.053 116.163C86.0481 115.202 85.8302 114.253 85.4148 113.386C85.171 112.875 85.0915 112.301 85.1872 111.744C85.2829 111.186 85.5491 110.671 85.9492 110.271Z" fill="white"/>
<path d="M62.36 115.947C60.4772 114.059 59.2767 111.598 58.9478 108.953C58.619 106.307 59.1805 103.627 60.5438 101.335H55.829C53.2324 101.338 50.7095 100.472 48.6628 98.874C46.6162 97.276 45.1635 95.0387 44.5366 92.5189L44.0022 90.3803H0L4.69498 123.246H69.8694C68.959 122.002 68.2981 120.593 67.9231 119.098C65.8172 118.572 63.8941 117.483 62.36 115.947ZM18.7525 117.768H13.2749C12.5486 117.768 11.8519 117.48 11.3383 116.966C10.8247 116.452 10.5361 115.756 10.5361 115.029C10.5361 114.303 10.8247 113.606 11.3383 113.093C11.8519 112.579 12.5486 112.291 13.2749 112.291H18.7525C19.4789 112.291 20.1755 112.579 20.6891 113.093C21.2028 113.606 21.4913 114.303 21.4913 115.029C21.4913 115.756 21.2028 116.452 20.6891 116.966C20.1755 117.48 19.4789 117.768 18.7525 117.768ZM46.1405 117.768H29.7077C28.9813 117.768 28.2847 117.48 27.7711 116.966C27.2575 116.452 26.9689 115.756 26.9689 115.029C26.9689 114.303 27.2575 113.606 27.7711 113.093C28.2847 112.579 28.9813 112.291 29.7077 112.291H46.1405C46.8669 112.291 47.5635 112.579 48.0771 113.093C48.5907 113.606 48.8793 114.303 48.8793 115.029C48.8793 115.756 48.5907 116.452 48.0771 116.966C47.5635 117.48 46.8669 117.768 46.1405 117.768Z" fill="white"/>
<path d="M114.968 97.7127L104.801 99.1653L91.0677 112.899C91.5641 114.651 91.6558 116.492 91.3358 118.285C91.0157 120.078 90.2924 121.774 89.2203 123.246H131.407L136.102 90.3803H133.739C128.136 94.2471 121.709 96.7574 114.968 97.7127Z" fill="white"/>
<path d="M138.605 48.4161C135.306 45.11 130.996 43.0036 126.361 42.4328C121.726 41.8619 117.033 42.8595 113.031 45.2665C108.3 48.0927 104.234 51.9063 101.11 56.4471C97.987 60.988 95.88 66.1491 94.9331 71.5784L94.929 71.6017C94.8575 72.008 94.7921 72.4158 94.7325 72.8259L93.3439 82.5432L104.477 93.6784L114.194 92.2902C119.862 91.4916 125.28 89.4335 130.049 86.2669C134.818 83.1004 138.817 78.9058 141.753 73.9913C144.16 69.9892 145.158 65.2963 144.588 60.6609C144.017 56.0256 141.911 51.7148 138.605 48.4161ZM110.043 81.3343C109.613 81.7653 109.064 82.0589 108.466 82.1778C107.868 82.2968 107.249 82.2358 106.685 82.0026C106.122 81.7695 105.641 81.3746 105.303 80.8678C104.964 80.3611 104.783 79.7654 104.783 79.156C104.783 78.5465 104.964 77.9508 105.303 77.4441C105.641 76.9374 106.122 76.5424 106.685 76.3093C107.249 76.0761 107.868 76.0151 108.466 76.1341C109.064 76.253 109.613 76.5466 110.043 76.9776C110.621 77.5554 110.946 78.3389 110.946 79.156C110.946 79.973 110.621 80.7565 110.043 81.3343ZM123.114 81.3343C122.683 81.7653 122.134 82.0589 121.536 82.1778C120.939 82.2968 120.319 82.2358 119.756 82.0026C119.193 81.7695 118.712 81.3746 118.373 80.8678C118.035 80.3611 117.854 79.7654 117.854 79.156C117.854 78.5465 118.035 77.9508 118.373 77.4441C118.712 76.9374 119.193 76.5424 119.756 76.3093C120.319 76.0761 120.939 76.0151 121.536 76.1341C122.134 76.253 122.683 76.5466 123.114 76.9776C123.692 77.5554 124.016 78.3389 124.016 79.156C124.016 79.973 123.692 80.7565 123.114 81.3343ZM123.114 68.2638C122.683 68.6948 122.134 68.9883 121.536 69.1073C120.939 69.2262 120.319 69.1653 119.756 68.9321C119.193 68.6989 118.712 68.304 118.373 67.7973C118.035 67.2906 117.854 66.6948 117.854 66.0854C117.854 65.476 118.035 64.8802 118.373 64.3735C118.712 63.8668 119.193 63.4719 119.756 63.2387C120.319 63.0055 120.939 62.9446 121.536 63.0635C122.134 63.1825 122.683 63.476 123.114 63.907C123.4 64.1931 123.627 64.5328 123.782 64.9066C123.937 65.2805 124.016 65.6811 124.016 66.0857C124.016 66.4904 123.937 66.891 123.782 67.2648C123.627 67.6387 123.4 67.9783 123.114 68.2645V68.2638Z" fill="white"/>
<path d="M121.457 27.3879C121.457 28.1143 121.746 28.8109 122.259 29.3246C122.773 29.8382 123.47 30.1267 124.196 30.1267C124.922 30.1267 125.619 29.8382 126.133 29.3246C126.646 28.8109 126.935 28.1143 126.935 27.3879C126.935 26.163 127.239 25.707 127.844 24.7988C128.616 23.6406 129.674 22.0545 129.674 19.1716C129.674 16.2886 128.616 14.7022 127.844 13.544C127.239 12.6354 126.935 12.1794 126.935 10.9552C126.935 9.73094 127.239 9.27459 127.844 8.36668C128.616 7.20817 129.674 5.62206 129.674 2.73879C129.674 2.01242 129.385 1.3158 128.871 0.802175C128.358 0.288551 127.661 0 126.935 0C126.208 0 125.512 0.288551 124.998 0.802175C124.485 1.3158 124.196 2.01242 124.196 2.73879C124.196 3.96338 123.892 4.41939 123.287 5.3273C122.515 6.48512 121.457 8.07123 121.457 10.9552C121.457 13.8391 122.515 15.4246 123.287 16.5827C123.892 17.4903 124.196 17.9463 124.196 19.1716C124.196 20.3968 123.892 20.8525 123.287 21.7608C122.515 22.9186 121.457 24.5047 121.457 27.3879Z" fill="white"/>
<path d="M136.521 27.388C136.521 28.1143 136.809 28.8109 137.323 29.3246C137.836 29.8382 138.533 30.1267 139.259 30.1267C139.986 30.1267 140.682 29.8382 141.196 29.3246C141.71 28.8109 141.998 28.1143 141.998 27.388C141.998 26.163 142.302 25.707 142.908 24.7988C143.68 23.6406 144.737 22.0545 144.737 19.1716C144.737 16.2886 143.68 14.7022 142.908 13.544C142.302 12.6354 141.998 12.1794 141.998 10.9552C141.974 10.4127 142.077 9.87213 142.299 9.37627C142.451 9.05032 142.537 8.69759 142.553 8.3382C142.569 7.97881 142.514 7.6198 142.391 7.28169C142.268 6.94357 142.08 6.63295 141.837 6.36758C141.594 6.10221 141.302 5.88727 140.976 5.73504C140.65 5.58281 140.297 5.49628 139.938 5.48037C139.578 5.46446 139.219 5.5195 138.881 5.64234C138.543 5.76517 138.232 5.95341 137.967 6.19628C137.702 6.43916 137.487 6.73193 137.334 7.05788C136.776 8.28006 136.498 9.61166 136.521 10.9552C136.521 13.8384 137.578 15.4246 138.35 16.5827C138.955 17.4903 139.259 17.9463 139.259 19.1716C139.259 20.3968 138.955 20.8525 138.35 21.7608C137.578 22.9186 136.521 24.5047 136.521 27.388Z" fill="white"/>
<path d="M106.394 27.388C106.394 28.1143 106.683 28.8109 107.196 29.3246C107.71 29.8382 108.406 30.1267 109.133 30.1267C109.859 30.1267 110.556 29.8382 111.069 29.3246C111.583 28.8109 111.872 28.1143 111.872 27.388C111.872 26.163 112.176 25.707 112.781 24.7988C113.553 23.6406 114.61 22.0545 114.61 19.1716C114.61 16.2886 113.553 14.7022 112.781 13.544C112.176 12.6354 111.872 12.1794 111.872 10.9552C111.848 10.4127 111.951 9.87213 112.172 9.37627C112.324 9.05032 112.411 8.69759 112.427 8.3382C112.442 7.97881 112.387 7.6198 112.265 7.28169C112.142 6.94357 111.954 6.63295 111.711 6.36758C111.468 6.10221 111.175 5.88727 110.849 5.73504C110.523 5.58281 110.17 5.49628 109.811 5.48037C109.452 5.46446 109.093 5.5195 108.754 5.64234C108.416 5.76517 108.106 5.95341 107.84 6.19628C107.575 6.43916 107.36 6.73193 107.208 7.05788C106.649 8.28006 106.371 9.61166 106.394 10.9552C106.394 13.8384 107.452 15.4246 108.224 16.5827C108.829 17.4903 109.133 17.9463 109.133 19.1716C109.133 20.3968 108.829 20.8525 108.224 21.7608C107.452 22.9186 106.394 24.5047 106.394 27.388Z" fill="white"/>
</svg>
