<svg width="144" height="144" viewBox="0 0 144 144" fill="none" xmlns="http://www.w3.org/2000/svg">
<path d="M68.1549 0.347931C67.1296 0.66835 64.8867 1.50143 63.2845 2.27045C60.9134 3.35988 59.1832 3.55214 54.6332 3.48805C47.7762 3.35988 45.0846 4.32114 40.9192 8.35844C37.8431 11.3063 34.703 13.2289 32.7805 13.2289C30.9861 13.2289 25.3467 16.1126 23.8087 17.8429C22.9756 18.676 21.5017 21.1753 20.4763 23.2901C19.2587 25.7894 17.6566 27.84 16.1186 28.9936C9.1334 34.0562 7.65947 36.4273 6.89046 43.2843C6.44187 47.2576 5.92919 48.6674 4.00667 51.4871C-0.0947204 57.4469 -0.863731 61.1638 0.866543 66.8032C2.08414 70.7765 2.08414 72.9553 0.866543 76.9285C-0.863731 82.568 -0.0947204 86.2848 4.00667 92.2447C5.92919 95.0644 6.44187 96.4742 6.89046 100.447C7.65947 107.433 8.81298 109.099 16.5672 115.059C17.6566 115.892 19.5791 118.519 20.7967 120.954C23.2319 125.889 26.5002 128.773 30.922 129.926C35.9847 131.272 37.3945 132.041 40.6628 135.117C45.2128 139.411 47.7121 140.308 54.8895 140.18C60.1444 140.116 61.1698 140.308 64.1817 141.846C68.924 144.281 75.076 144.281 79.8183 141.846C82.8302 140.308 83.8556 140.116 89.1105 140.18C96.2879 140.308 98.7872 139.411 103.337 135.117C106.605 132.041 108.015 131.272 113.078 129.926C117.436 128.773 120.512 126.017 123.139 121.018C124.485 118.519 126.407 115.828 127.497 114.995C135.187 109.163 136.341 107.369 137.11 100.447C137.558 96.4742 138.071 95.0644 139.993 92.2447C144.095 86.2848 144.864 82.568 143.133 76.9285C142.621 75.1983 142.172 72.8912 142.172 71.8659C142.172 70.7765 142.621 68.5335 143.133 66.8032C144.864 61.1638 144.095 57.4469 139.993 51.4871C138.071 48.6674 137.558 47.2576 137.11 43.2843C136.341 36.4273 134.803 34.0562 127.881 28.9936C126.343 27.9041 124.677 25.6612 123.331 22.9697C122.114 20.5985 120.448 18.0352 119.679 17.2662C117.884 15.664 112.886 13.2929 111.22 13.2289C109.297 13.2289 106.157 11.3063 103.081 8.35844C98.9154 4.32114 96.2238 3.35988 89.3668 3.48805C84.4964 3.61621 83.0866 3.35988 80.1387 2.01411C76.2936 0.219757 71.1669 -0.485168 68.1549 0.347931ZM79.0493 6.56409C81.6767 7.84578 83.3429 8.10211 88.1492 8.10211C91.3534 8.10211 94.7499 8.35844 95.6471 8.74295C96.4802 9.06337 98.7872 10.7296 100.774 12.5239C104.939 16.3049 105.836 16.8176 109.874 17.7147C114.68 18.8042 116.923 20.5344 118.846 24.6358C121.217 29.5703 122.498 31.0443 126.343 33.7358C130.509 36.6837 132.303 39.7597 132.688 44.8864C133.072 48.9878 134.226 51.9998 136.789 55.0758C139.224 57.9596 139.865 61.4202 138.712 65.4575C137.43 69.7511 137.43 74.1729 138.648 78.2743C139.865 82.3116 139.481 84.4264 136.597 88.656C133.777 92.8214 132.624 96.0256 132.56 99.6144C132.56 103.459 130.509 106.984 126.984 109.483C122.819 112.303 121.153 114.226 119.486 118.007C117.564 122.3 114.296 125.056 110.13 125.953C105.901 126.85 103.914 127.94 101.158 130.823C97.4414 134.732 95.0062 135.63 88.5337 135.566C83.7274 135.502 82.3176 135.694 78.7288 137.232C73.4739 139.475 70.5261 139.475 65.2712 137.232C61.6824 135.758 60.2726 135.502 55.5304 135.566C52.4543 135.566 49.2501 135.373 48.3529 134.989C47.4557 134.668 45.2128 133.002 43.2262 131.208C38.9966 127.363 38.0995 126.85 33.8699 125.953C29.8326 125.056 26.4361 122.3 24.7059 118.327C22.9756 114.354 21.5017 112.623 17.6566 109.996C13.6193 107.176 11.5045 103.652 11.4404 99.7425C11.3764 96.0256 10.2228 92.8855 7.40313 88.656C4.51934 84.4264 4.13484 82.3116 5.35244 78.2743C6.57004 74.1729 6.57004 69.7511 5.28835 65.4575C4.13484 61.4202 4.77568 57.9596 7.21088 55.0758C9.77425 51.9998 10.8637 49.2442 11.3764 44.3097C12.0172 38.9266 13.427 36.4273 17.208 34.0562C20.7326 31.8773 22.527 29.6985 24.8981 25.0203C27.1411 20.4704 29.2558 18.8042 34.1262 17.7147C38.1635 16.8176 39.0607 16.3049 43.2262 12.5239C45.2128 10.7296 47.5198 9.06337 48.3529 8.74295C49.2501 8.35844 52.6466 8.10211 55.8508 8.10211C60.4648 8.10211 62.3874 7.78169 64.6303 6.75635C70.5261 4.00072 73.3458 3.93665 79.0493 6.56409Z" fill="white"/>
<path d="M59.5036 13.1647C32.9727 18.9323 13.6834 41.554 12.2735 68.4053C11.4404 83.6573 15.7981 97.3073 25.2185 109.163C37.2663 124.479 55.7226 132.682 75.4605 131.592C100.902 130.182 122.178 113.136 129.74 87.8869C131.342 82.6961 131.47 81.094 131.534 72.1862C131.598 63.7912 131.342 61.4201 130.124 56.9342C124.357 35.7223 108.272 19.509 87.3802 13.8696C80.0105 11.883 66.8732 11.4985 59.5036 13.1647ZM58.5423 24.8921C61.8106 26.5583 64.2458 29.0576 65.6556 32.0695C70.7824 43.092 61.0416 55.1399 49.3783 52.0638C37.0741 48.8596 34.4466 32.6463 45.1487 25.9816C46.4304 25.2125 48.3529 24.3154 49.5064 24.059C51.8134 23.4823 56.6838 23.9309 58.5423 24.8921ZM83.7274 30.4674C84.5605 36.0428 80.0105 41.7463 73.8584 42.8998C71.295 43.4125 69.5648 42.1948 69.8852 40.1442C70.0134 38.9266 70.5901 38.478 72.6408 38.0935C75.9091 37.3885 78.4725 34.8893 79.0492 31.9414C79.626 28.7372 79.8823 28.4808 81.8048 28.7372C83.0865 28.8653 83.5992 29.378 83.7274 30.4674ZM103.337 37.8371C111.732 42.7075 112.886 54.8194 105.516 60.9715C102.568 63.4708 99.8125 64.4961 96.0315 64.4961C79.8182 64.4961 76.1014 42.1948 91.3534 36.5554C94.7499 35.2738 99.9407 35.8505 103.337 37.8371ZM35.7283 51.8075C36.0487 52.6406 37.0741 53.9863 38.0353 54.8835C39.3811 56.1652 40.4065 56.4856 43.0339 56.4856C44.8924 56.4856 46.7508 56.742 47.1994 56.9983C48.2888 57.7032 48.1607 59.6898 47.0071 60.6511C45.6614 61.8046 39.7015 61.6764 37.3945 60.4588C33.2931 58.3441 30.2171 53.6659 31.3706 51.4871C32.3319 49.885 35.0875 50.0772 35.7283 51.8075ZM74.6274 57.1265C82.9584 61.9969 84.0478 74.0447 76.6781 80.1968C73.7302 82.6961 70.9746 83.7214 67.1937 83.7214C59.1831 83.7214 52.967 77.5693 52.8388 69.6229C52.7106 58.3441 64.8225 51.3589 74.6274 57.1265ZM42.5853 66.2905C47.5839 68.8539 50.1473 73.1475 50.1473 79.0433C50.2113 81.5425 50.4677 82.7601 50.7881 82.3756C52.1339 81.094 53.8001 81.7989 54.7613 84.0418C55.9789 86.9256 55.8508 89.2326 54.4409 92.3728C51.8775 98.0122 45.3409 101.216 44.8924 97.115C44.7642 95.7692 45.1487 95.1284 46.879 94.039C49.2501 92.565 50.5318 90.3221 50.4677 87.6946C50.4036 85.6439 49.3783 82.7601 49.3142 84.4263C49.186 86.3489 44.1874 91.2833 41.2396 92.3728C37.1382 93.9749 31.5628 93.4622 28.1664 91.2193C24.065 88.4636 22.0784 85.0031 21.822 79.8764C21.5016 74.9419 22.7192 71.994 26.372 68.4694C30.6016 64.368 37.1382 63.5349 42.5853 66.2905ZM121.281 64.8807C122.691 65.4574 122.562 67.8285 120.96 69.8792C117.115 74.7496 107.439 75.6468 104.747 71.4172C104.234 70.5201 104.298 70.0074 105.196 69.1743C106.157 68.213 106.605 68.1489 109.169 68.8539C112.629 69.751 115.321 68.918 117.628 66.1623C119.166 64.4321 119.615 64.2398 121.281 64.8807ZM97.6336 66.1623C99.1717 67.7644 98.5308 69.1743 95.583 70.5841C92.0583 72.2503 90.9689 73.7884 90.9048 77.1207C90.9048 79.62 89.6872 81.7989 88.3414 81.7989C87.0598 81.7989 85.7781 79.62 85.7781 77.313C85.7781 72.4426 88.4055 68.5335 93.1478 66.3546C96.2879 64.8807 96.352 64.8807 97.6336 66.1623ZM106.157 77.6975C115.898 81.7348 118.269 94.2953 110.707 101.473C103.465 108.33 91.7379 105.959 87.6365 96.8587C82.4457 85.4517 94.6217 72.8271 106.157 77.6975ZM82.8302 84.1059C84.2401 84.6827 84.1119 87.0538 82.5098 89.1045C78.6647 93.9749 68.988 94.8721 66.2965 90.6425C65.7838 89.7453 65.8479 89.2326 66.7451 88.3996C67.7063 87.4383 68.1549 87.3742 70.7183 88.0791C74.2429 89.0404 77.383 88.015 79.0492 85.3876C80.2027 83.7214 81.0358 83.401 82.8302 84.1059ZM70.3979 94.6798C73.9866 96.2819 75.9091 98.0763 77.5112 101.152C80.3309 106.728 79.626 112.559 75.3964 117.302C72.1922 120.954 68.5394 122.428 63.4127 122.044C51.2367 121.147 46.0459 106.279 54.9536 97.5636C59.2472 93.334 65.0789 92.2446 70.3979 94.6798ZM84.8809 101.537C85.2654 101.793 86.0985 102.883 86.7393 104.036C88.2774 106.728 90.4562 107.753 94.0449 107.625C98.2745 107.497 99.8766 109.291 97.5696 111.534C96.416 112.752 91.2893 112.944 88.5337 111.854C86.3548 111.021 83.407 108.33 82.1894 106.023C81.0358 103.844 81.0358 103.267 82.3175 102.049C83.407 100.896 83.8555 100.832 84.8809 101.537Z" fill="white"/>
<path d="M48.6093 32.1337C47.4558 33.5435 48.5452 35.3379 50.5959 35.3379C51.8776 35.3379 52.1339 35.0175 52.1339 33.4154C52.1339 31.9414 51.8135 31.4287 50.7882 31.3006C50.0832 31.1724 49.0579 31.5569 48.6093 32.1337Z" fill="white"/>
<path d="M56.0429 36.6837C55.4661 37.1964 55.0175 37.9013 55.0175 38.2217C55.0175 38.5421 55.4661 39.247 56.0429 39.7597C56.5556 40.3365 57.2605 40.7851 57.5809 40.7851C57.9013 40.7851 58.6063 40.3365 59.1189 39.7597C59.6957 39.247 60.1443 38.5421 60.1443 38.2217C60.1443 37.9013 59.6957 37.1964 59.1189 36.6837C58.6063 36.1069 57.9013 35.6583 57.5809 35.6583C57.2605 35.6583 56.5556 36.1069 56.0429 36.6837Z" fill="white"/>
<path d="M48.6093 41.7464C47.4558 43.1562 48.5452 44.9506 50.5959 44.9506C51.8776 44.9506 52.1339 44.6302 52.1339 43.0281C52.1339 41.5541 51.8135 41.0414 50.7882 40.9133C50.0832 40.7851 49.0579 41.1696 48.6093 41.7464Z" fill="white"/>
<path d="M91.9942 43.797C91.7379 43.9893 91.5457 44.8864 91.5457 45.6555C91.5457 47.5139 93.8527 48.347 95.1985 47.0012C96.5442 45.6555 95.7111 43.3484 93.8527 43.3484C93.0837 43.3484 92.1865 43.5407 91.9942 43.797Z" fill="white"/>
<path d="M99.2358 48.7956C97.9541 50.3977 98.7231 51.9998 100.838 51.9998C102.184 51.9998 102.824 51.6794 102.953 50.8463C103.209 49.5005 102.055 47.8343 100.838 47.8343C100.389 47.8343 99.6843 48.2829 99.2358 48.7956Z" fill="white"/>
<path d="M91.9942 53.4096C91.7379 53.6019 91.5457 54.4991 91.5457 55.2681C91.5457 57.1265 93.8527 57.9596 95.1985 56.6139C96.5442 55.2681 95.7111 52.9611 93.8527 52.9611C93.0837 52.9611 92.1865 53.1533 91.9942 53.4096Z" fill="white"/>
<path d="M64.8868 62.83C64.1818 64.6244 64.9508 66.0983 66.4889 66.0983C68.5396 66.0983 69.629 64.3039 68.5396 62.9582C67.4501 61.6765 65.3353 61.6124 64.8868 62.83Z" fill="white"/>
<path d="M69.821 69.8792C68.7957 71.1609 70.0133 73.4679 71.6795 73.4679C73.3457 73.4679 74.5633 71.1609 73.5379 69.8792C73.1534 69.3665 72.3203 68.982 71.6795 68.982C71.0386 68.982 70.2055 69.3665 69.821 69.8792Z" fill="white"/>
<path d="M61.4261 71.8658C60.2726 73.2756 61.362 75.07 63.4127 75.07C64.6944 75.07 64.9507 74.7496 64.9507 73.1475C64.9507 71.6735 64.6303 71.1609 63.605 71.0327C62.9 70.9045 61.8747 71.289 61.4261 71.8658Z" fill="white"/>
<path d="M31.4988 73.2116C30.9861 74.6215 32.1396 76.3517 33.5495 76.3517C34.9594 76.3517 36.1129 74.6215 35.6002 73.2116C35.0875 71.8659 32.0115 71.8659 31.4988 73.2116Z" fill="white"/>
<path d="M38.9966 77.6334C38.6121 78.1461 38.4199 79.1073 38.6762 79.8763C39.317 81.8629 42.4572 81.4144 42.7135 79.2996C43.098 76.9285 40.5346 75.7749 38.9966 77.6334Z" fill="white"/>
<path d="M31.4988 82.8241C30.9861 84.234 32.1396 85.9642 33.5495 85.9642C34.9594 85.9642 36.1129 84.234 35.6002 82.8241C35.0875 81.4784 32.0115 81.4784 31.4988 82.8241Z" fill="white"/>
<path d="M101.351 85.3878C100.838 86.7977 101.991 88.5279 103.401 88.5279C104.811 88.5279 105.965 86.7977 105.452 85.3878C104.939 84.042 101.863 84.042 101.351 85.3878Z" fill="white"/>
<path d="M93.7245 90.3861C93.0195 92.1805 93.7885 93.6544 95.3266 93.6544C97.3773 93.6544 98.4667 91.8601 97.3773 90.5143C96.2878 89.2326 94.173 89.1685 93.7245 90.3861Z" fill="white"/>
<path d="M101.863 93.5905C100.517 95.1926 101.607 97.3073 103.594 97.051C105.067 96.9228 105.324 96.5383 105.324 94.9362C105.324 93.4623 105.003 92.9496 103.978 92.8214C103.273 92.6933 102.312 93.0778 101.863 93.5905Z" fill="white"/>
<path d="M58.8626 103.267C57.7091 104.677 58.7985 106.471 60.8492 106.471C62.1309 106.471 62.3872 106.151 62.3872 104.549C62.3872 103.075 62.0668 102.562 61.0414 102.434C60.3365 102.306 59.3112 102.69 58.8626 103.267Z" fill="white"/>
<path d="M67.2578 104.805C66.4247 106.343 67.7704 108.33 69.4366 108.009C71.231 107.625 72.1282 105.831 71.1028 104.613C69.9493 103.203 68.0268 103.331 67.2578 104.805Z" fill="white"/>
<path d="M63.0922 111.662C61.7465 113.008 61.8105 114.29 63.2845 115.123C65.0148 116.02 66.5528 115.251 66.5528 113.456C66.5528 111.406 64.438 110.316 63.0922 111.662Z" fill="white"/>
</svg>
