<svg width="129" height="132" viewBox="0 0 129 132" fill="none" xmlns="http://www.w3.org/2000/svg">
<path d="M8.9434 47.1374C13.392 54.0193 18.2963 60.5956 23.6236 66.8223H27.6075C27.1055 63.9447 26.3915 61.1082 25.4715 58.3358C21.954 48.0515 15.8213 38.8592 7.67608 31.6622L10.7683 28.2474C19.5026 35.9729 26.0754 45.8389 29.8403 56.875C30.4486 58.6884 30.9487 60.5479 31.3934 62.4258C31.6008 62.0479 31.8151 61.6746 31.9971 61.2737C37.1839 49.7526 34.6631 31.4065 23.6397 25.0422C20.9933 23.6763 18.0974 22.8612 15.1271 22.6461C12.1567 22.4311 9.17362 22.8206 6.35806 23.791C5.07348 24.1168 3.86948 24.7029 2.82071 25.5131C1.77194 26.3232 0.900739 27.3402 0.261107 28.5008C-0.962432 31.5908 2.39712 37.0149 8.9434 47.1374Z" fill="white"/>
<path d="M62.0787 44.423C61.9043 43.0326 61.5568 41.6694 61.0441 40.3653C57.4518 31.2498 46.9676 26.169 40.6863 28.04C38.6241 28.7355 36.8445 30.0839 35.6171 31.8811C39.861 41.1262 40.3419 51.6596 36.9581 61.253C37.0895 61.0917 37.2461 60.9488 37.3752 60.7921C42.2702 54.4621 45.2954 46.888 46.1082 38.9274L50.6889 39.4297C49.7953 48.2541 46.4333 56.648 40.9882 63.6494C40.1103 64.76 39.1448 65.8038 38.1586 66.8292H48.7857L48.9769 66.7393C47.7685 62.0434 48.4689 57.06 50.9251 52.8792C53.3812 48.6984 57.3931 45.6605 62.0833 44.4299L62.0787 44.423Z" fill="white"/>
<path d="M104.156 66.8223H127.233C125.765 64.6959 123.71 63.0433 121.318 62.0664C119.756 61.5398 118.126 61.2448 116.479 61.1908C114.364 61.0341 111.965 60.8544 110.854 58.6354C109.702 56.3081 111.276 54.3472 112.539 52.7689C113.822 51.3743 114.761 49.698 115.278 47.8747C116.417 42.9091 116.43 34.5748 111.785 31.9618C110.706 31.4108 109.526 31.0828 108.317 30.9973C107.108 30.9118 105.894 31.0705 104.748 31.4641C101.29 32.5025 98.3534 34.8117 96.5289 37.9274C94.7339 41.3975 95.7824 45.2456 96.7962 48.9623C97.8101 52.679 98.87 56.5869 96.0773 59.2691C93.2408 61.9996 89.0978 60.882 85.0862 59.7875C85.4254 62.1371 85.2795 64.5312 84.6576 66.8223H99.4714C100.047 63.5595 100.697 60.2921 101.451 57.0777C102.741 51.5845 104.313 46.0866 106.121 40.7385L110.486 42.2132C108.725 47.4231 107.195 52.7804 105.939 58.1331C105.267 60.9995 104.684 63.9121 104.156 66.8223Z" fill="white"/>
<path d="M79.8557 66.8223C80.2784 65.6302 80.5305 64.3843 80.6046 63.1217L76.7726 64.3982L75.3164 60.0202L80.1138 58.4211C79.3935 55.9158 77.9808 53.6647 76.0381 51.9266C74.0954 50.1885 71.7015 49.034 69.1319 48.5959V52.997H64.5234V48.5959C62.319 48.9727 60.2387 49.8777 58.4602 51.2336C56.6818 52.5895 55.2582 54.3559 54.3111 56.3819L58.3389 57.7252L56.8826 62.1032L53.0738 60.8313C53.027 61.2907 53.0032 61.7521 53.0023 62.2138C52.9992 63.7846 53.269 65.3439 53.7996 66.8223H79.8557ZM64.5234 57.6054H69.1319V62.2138H64.5234V57.6054Z" fill="white"/>
<path d="M17.6395 66.8223C15.0619 63.6824 12.5802 60.4442 10.1946 57.1077C8.08861 57.8087 6.0503 58.6987 4.10455 59.7668C2.52442 60.4538 1.23869 61.6783 0.475414 63.2231C0.00541519 64.3616 -0.119584 65.6132 0.115956 66.8223H17.6395Z" fill="white"/>
<path d="M0.046875 71.4307C0.661358 87.5149 7.47835 102.737 19.0688 113.905C30.6593 125.074 46.1233 131.322 62.2192 131.34H66.8277C82.9236 131.322 98.3876 125.074 109.978 113.905C121.569 102.737 128.386 87.5149 129 71.4307H0.046875ZM38.1748 119.589C27.2747 114.328 18.1341 106.019 11.8606 95.6688L15.8008 93.277C21.6136 102.866 30.0815 110.565 40.1794 115.441L38.1748 119.589ZM48.3939 122.123H43.7855V117.515H48.3939V122.123Z" fill="white"/>
<path d="M99.0866 11.5211V6.91265H89.8698C84.9808 6.91265 80.2921 8.85477 76.8352 12.3118C73.3782 15.7688 71.436 20.4574 71.436 25.3464V29.9548H80.6529C85.5418 29.9548 90.2305 28.0127 93.6875 24.5557C97.1445 21.0987 99.0866 16.41 99.0866 11.5211Z" fill="white"/>
<path d="M55.3066 16.1295C57.8517 16.1295 59.915 14.0662 59.915 11.5211C59.915 8.97591 57.8517 6.91265 55.3066 6.91265C52.7614 6.91265 50.6981 8.97591 50.6981 11.5211C50.6981 14.0662 52.7614 16.1295 55.3066 16.1295Z" fill="white"/>
<path d="M25.3517 9.21687C27.8969 9.21687 29.9602 7.1536 29.9602 4.60843C29.9602 2.06327 27.8969 0 25.3517 0C22.8066 0 20.7433 2.06327 20.7433 4.60843C20.7433 7.1536 22.8066 9.21687 25.3517 9.21687Z" fill="white"/>
</svg>
