<svg width="41" height="41" viewBox="0 0 41 41" fill="none" xmlns="http://www.w3.org/2000/svg">
<path d="M30.2631 0.0984449C30.2296 0.152825 30.0707 0.508391 29.9117 0.897422L29.6189 1.596L30.4053 1.99758C32.0618 2.83839 33.0867 3.49514 34.2705 4.47818C35.492 5.49049 36.68 6.80818 37.5919 8.15932C38.1483 8.97922 38.416 9.44354 38.9263 10.4726C39.1648 10.9537 39.3739 11.3427 39.3949 11.3427C39.4785 11.3427 40.8088 10.7529 40.8966 10.6817C40.9468 10.6357 40.9886 10.5479 40.9886 10.4893C40.9886 10.3429 40.2022 8.78679 39.7253 7.99618C38.8301 6.51117 37.7174 5.14748 36.3203 3.82561C34.7181 2.31132 33.5594 1.49561 31.5222 0.454011C30.5726 -0.0354147 30.3844 -0.0856123 30.2631 0.0984449Z" fill="white"/>
<path d="M18.7762 1.05222C15.4004 1.22372 11.9285 2.37827 8.96681 4.30669C6.67445 5.79588 4.76695 7.70757 3.24429 10.025C1.79693 12.2337 0.772066 14.8189 0.270091 17.517C0.0651183 18.6088 0.0358364 18.9644 0.00655458 20.441C-0.0185442 22.0306 0.0274702 23.1182 0.16133 23.9339C0.89756 28.4098 2.74232 32.0784 5.78763 35.1238C9.19688 38.5372 13.539 40.5451 18.3788 40.9592C19.0272 41.0136 20.8678 41.0136 21.5162 40.9592C24.1306 40.7333 26.5192 40.0724 28.8366 38.9304C32.2752 37.2279 35.0486 34.6845 37.0481 31.3882C37.4581 30.7147 38.2612 29.1042 38.5415 28.3889C39.1397 26.8746 39.6291 24.9797 39.8257 23.4319C39.8634 23.1224 39.8801 22.4071 39.8801 20.9848C39.8801 19.299 39.8675 18.8932 39.8048 18.4582C39.6626 17.4584 39.3321 15.9818 39.0184 14.9695C38.8636 14.4591 38.4871 13.4343 38.4286 13.3631C38.3574 13.2753 36.7637 13.9697 36.7637 14.0868C36.7637 14.1245 36.9017 14.5721 37.0732 15.0782C37.8178 17.3037 38.0353 18.659 38.0353 21.0685C38.0353 22.9341 37.9308 23.8168 37.5166 25.4733C36.0233 31.4133 31.564 36.2448 25.7746 38.1816C24.6242 38.5665 23.5492 38.8133 22.1855 38.9973C21.3865 39.1061 19.3702 39.1521 18.5043 39.081C14.0995 38.7171 10.1172 36.8514 7.01747 33.6973C6.31889 32.9862 6.00097 32.6181 5.42788 31.8526C4.28171 30.3257 3.40743 28.6525 2.79252 26.8203C2.0521 24.599 1.77183 22.5702 1.87641 20.1649C1.93497 18.7468 2.06465 17.8056 2.35329 16.6845C3.16063 13.5598 4.52433 11.0331 6.65354 8.72407C9.5148 5.61182 13.2963 3.64576 17.5882 3.03502C18.2073 2.94717 20.7507 2.90534 21.6082 2.97227C22.9845 3.07685 24.8083 3.4868 26.2557 4.00969C26.8706 4.23557 26.8957 4.23976 26.9542 4.16446C27.017 4.0808 27.4771 3.05593 27.565 2.79658C27.6068 2.68364 27.6068 2.61671 27.5775 2.56651C27.4604 2.38663 25.6784 1.80936 24.2645 1.49563C23.1099 1.23627 22.152 1.11915 20.7214 1.05222C19.7634 1.01039 19.6714 1.01039 18.7762 1.05222Z" fill="white"/>
<path d="M29.0583 3.08943C28.5898 4.07665 26.4439 9.15914 24.3021 14.3462C22.9761 17.5547 22.7084 18.224 22.7502 18.2365C22.7711 18.2449 23.0472 18.1487 23.3651 18.0232C26.0339 16.969 37.3284 12.1961 38.2277 11.7401C38.4746 11.6146 38.4913 11.6941 38.0353 10.7864C37.6045 9.93302 37.412 9.59837 36.9059 8.83286C35.4334 6.60326 33.5343 4.81706 31.2377 3.4952C30.5977 3.13126 29.4641 2.55818 29.3721 2.55818C29.3344 2.55818 29.2131 2.76733 29.0583 3.08943ZM31.1583 5.0304C32.0535 5.44871 32.4132 6.54888 31.9614 7.48171C31.6686 8.08827 30.9533 8.46475 30.2296 8.39782C29.2759 8.30997 28.6442 7.61557 28.6442 6.65345C28.6442 6.1222 28.7655 5.79173 29.1002 5.43198C29.5018 5.0053 29.782 4.89654 30.4471 4.91327C30.8613 4.92164 30.9617 4.93837 31.1583 5.0304ZM33.961 9.7406C34.2161 9.85354 34.5675 10.2217 34.7265 10.5479C34.8478 10.7947 34.8603 10.8533 34.8603 11.2172C34.8603 11.5603 34.8436 11.6481 34.7474 11.8531C34.5926 12.1877 34.2998 12.4889 33.9651 12.6521C33.71 12.7775 33.6598 12.7859 33.2707 12.7859C32.9068 12.7859 32.8232 12.7734 32.614 12.673C31.5557 12.1794 31.3298 10.7947 32.1831 10.0083C32.2877 9.91211 32.4718 9.78243 32.5931 9.72805C32.7939 9.63184 32.8482 9.62347 33.2917 9.6402C33.6556 9.65275 33.8187 9.67785 33.961 9.7406ZM27.5817 12.2254C28.0502 12.3132 28.4351 12.5977 28.6358 13.0118C28.7404 13.2251 28.753 13.2879 28.753 13.7062C28.753 14.1245 28.7446 14.1873 28.6358 14.4048C28.4853 14.7143 28.1381 15.0323 27.8243 15.1494C27.3391 15.3293 26.7032 15.2372 26.2975 14.9277C25.5863 14.3839 25.5236 13.2628 26.1594 12.6228C26.5275 12.2588 27.017 12.1208 27.5817 12.2254Z" fill="white"/>
<path d="M18.3252 3.89594C16.5014 4.03399 14.1003 4.72839 12.2513 5.65285C10.3271 6.61916 8.85047 7.73187 7.34454 9.35492C2.90207 14.1404 1.5802 20.9338 3.89347 27.1081C5.42449 31.2034 8.60366 34.6628 12.5651 36.5452C16.514 38.4234 21.2241 38.7079 25.4282 37.3191C30.5065 35.6375 34.6143 31.4962 36.3001 26.3593C36.526 25.6733 36.8188 24.4895 36.9276 23.8453C37.0489 23.1258 37.0991 22.2933 37.0991 21.0677C37.0991 19.7793 37.0405 18.8673 36.9109 18.0976C36.685 16.7758 35.9738 14.4792 35.7898 14.4792C35.681 14.4792 32.6232 15.73 27.457 17.8801C22.3703 20.001 20.2076 20.8794 20.0947 20.8794C20.0612 20.8794 20.032 20.8669 20.032 20.8543C20.032 20.8418 20.3331 20.1181 20.6971 19.2522C22.3076 15.4414 26.2188 5.97078 26.4572 5.30566C26.5116 5.15088 26.5116 5.1467 26.3778 5.06722C26.3025 5.02121 25.9636 4.89153 25.6164 4.77858C24.3448 4.36027 22.8514 4.02144 21.9144 3.93777C21.2074 3.87503 18.9611 3.84993 18.3252 3.89594ZM20.7305 6.10882C21.0652 6.28869 21.3413 6.58151 21.5086 6.94126C21.6215 7.1797 21.6425 7.28009 21.655 7.61893C21.6676 7.93684 21.6508 8.06234 21.5839 8.25476C21.2994 9.06628 20.4461 9.57244 19.622 9.42185C18.6306 9.23779 17.9613 8.31332 18.1496 7.38885C18.2667 6.81995 18.6557 6.29706 19.1326 6.0628C19.3752 5.94567 19.3961 5.94149 19.9274 5.95404C20.4503 5.97078 20.4796 5.97496 20.7305 6.10882ZM12.7701 9.1876C13.1214 9.27962 13.569 9.52643 13.7447 9.72722C13.9497 9.96147 14.163 10.4342 14.2174 10.773C14.3513 11.6054 13.9037 12.4588 13.1382 12.8353C12.9123 12.9482 12.8705 12.9524 12.3141 12.9524C11.7494 12.9524 11.7201 12.9482 11.4775 12.8311C11.1512 12.668 10.7161 12.2329 10.553 11.9066C10.4359 11.664 10.4317 11.6347 10.4317 11.07C10.4317 10.4969 10.4359 10.4802 10.5655 10.1999C10.942 9.40512 11.9083 8.96589 12.7701 9.1876ZM19.3794 13.9564C19.6889 14.1153 20.0403 14.4876 20.1491 14.7804C20.4586 15.6171 20.1365 16.4746 19.371 16.8511C19.1577 16.9557 19.0908 16.9682 18.6934 16.9682C18.2792 16.9682 18.2332 16.9598 17.9739 16.8302C17.7856 16.7381 17.6225 16.6126 17.4635 16.4411C17.1582 16.1107 17.041 15.7676 17.0703 15.2615C17.0912 14.8223 17.2209 14.5796 17.6141 14.2073C17.9739 13.8685 18.1412 13.8058 18.7143 13.8225C19.0866 13.8309 19.1619 13.8476 19.3794 13.9564ZM7.75449 16.324C7.87998 16.37 8.07659 16.483 8.18954 16.5708C8.41542 16.7507 8.71243 17.169 8.77936 17.3991C9.1391 18.6707 8.12679 19.8587 6.81747 19.704C6.06869 19.6161 5.44959 19.0054 5.30736 18.2106C5.1484 17.3154 5.90973 16.3073 6.82584 16.2027C7.13539 16.165 7.44076 16.2069 7.75449 16.324ZM33.1628 18.516C33.7652 18.6582 34.2588 19.0681 34.5348 19.6496C34.6687 19.9299 34.6896 20.0135 34.7064 20.3816C34.7315 20.892 34.652 21.2308 34.4261 21.5822C34.012 22.2222 33.1962 22.6196 32.5186 22.5108C32.1086 22.4439 31.8535 22.3519 31.5857 22.1762C31.0796 21.8374 30.7659 21.2936 30.7115 20.6494C30.6613 20.0261 30.8411 19.5283 31.2887 19.0723C31.8033 18.5452 32.4558 18.3528 33.1628 18.516ZM14.4684 20.1557C15.2255 20.5113 15.6815 21.2015 15.6815 21.9838C15.6815 22.561 15.5351 22.925 15.1377 23.36C14.7278 23.8118 14.2634 24.0168 13.6778 24.0168C13.1047 24.0126 12.6948 23.8578 12.289 23.4855C11.9041 23.1299 11.6239 22.4941 11.6239 21.988C11.6239 21.7077 11.7285 21.3228 11.8623 21.0886C12.0087 20.8376 12.3727 20.4611 12.6529 20.2687C12.9667 20.0512 13.1884 20.001 13.7364 20.0135C14.1505 20.0261 14.23 20.0386 14.4684 20.1557ZM26.4238 21.0258C26.7584 21.1764 27.0973 21.532 27.2311 21.8708C27.3106 22.0674 27.3273 22.1929 27.3273 22.5318C27.3273 22.8915 27.3106 22.9835 27.2186 23.1801C27.0554 23.5273 26.8463 23.7407 26.4991 23.9122C25.9594 24.1799 25.3654 24.1548 24.876 23.8411C24.6125 23.6738 24.4368 23.4688 24.282 23.1383C24.1649 22.8957 24.1523 22.8288 24.1565 22.4899C24.1565 22.034 24.2569 21.7495 24.5121 21.4525C24.7129 21.2224 24.9346 21.0677 25.2399 20.9547C25.5579 20.8376 26.0766 20.8669 26.4238 21.0258ZM19.6597 23.8327C20.4001 24.0544 20.8853 24.5773 21.0066 25.2884C21.1614 26.2045 20.559 27.0704 19.5969 27.3089C19.3585 27.3674 19.2748 27.3674 19.0238 27.3256C18.4131 27.2127 17.8902 26.8236 17.635 26.2882C17.5095 26.0205 17.5012 25.9745 17.5012 25.5436C17.5012 25.1253 17.5137 25.0625 17.6183 24.845C18.0157 24.0335 18.8816 23.6026 19.6597 23.8327ZM9.5114 26.1041C9.85442 26.2757 10.2016 26.6438 10.3313 26.9742C10.394 27.1457 10.4233 27.3089 10.4233 27.5306C10.4233 28.2794 9.98828 28.8692 9.24787 29.116C8.93831 29.2206 8.83374 29.2248 8.50745 29.1369C7.94273 28.9947 7.56625 28.6935 7.32781 28.2083C7.22742 27.9991 7.21068 27.9196 7.21068 27.5933C7.21068 27.2587 7.22742 27.1876 7.34454 26.9366C7.56207 26.4764 7.92181 26.146 8.37359 25.9996C8.48654 25.9619 8.67059 25.9452 8.89648 25.9577C9.18094 25.9703 9.29388 25.9996 9.5114 26.1041ZM30.8035 26.5308C31.134 26.5894 31.3389 26.7023 31.6192 26.9701C32.322 27.6394 32.3429 28.7604 31.6736 29.5008C31.4812 29.7142 31.0043 29.9484 30.6696 29.9903C29.8623 30.099 29.147 29.7351 28.804 29.0407C28.6743 28.7772 28.6701 28.7437 28.6701 28.2626C28.6701 27.8025 28.6785 27.7397 28.7872 27.5139C29.1595 26.7149 29.8874 26.3593 30.8035 26.5308ZM23.5667 29.6849C24.1105 29.8731 24.6041 30.3458 24.8049 30.8687C24.9429 31.2285 24.9639 31.789 24.8467 32.1655C24.7463 32.5043 24.4912 32.9017 24.2444 33.1192C23.9934 33.3368 23.5165 33.5543 23.1735 33.6045C22.2281 33.7551 21.2158 33.09 20.969 32.1571C20.902 31.9061 20.8937 31.354 20.9564 31.0904C21.107 30.4295 21.7345 29.7895 22.3996 29.6263C22.6464 29.5636 23.3241 29.5971 23.5667 29.6849ZM15.9074 31.2285C16.2295 31.3874 16.5892 31.7555 16.7691 32.1153C16.9072 32.3872 16.9155 32.4207 16.9155 32.839C16.9155 33.2489 16.9072 33.3033 16.7817 33.5668C16.4387 34.2905 15.6982 34.7088 14.9536 34.6043C14.4851 34.5373 14.2258 34.4076 13.8995 34.0814C13.4979 33.6798 13.4059 33.4455 13.4017 32.8432C13.4017 32.4374 13.4101 32.383 13.5314 32.1278C13.7573 31.651 14.0877 31.354 14.5897 31.1825C14.8198 31.0988 14.9327 31.0862 15.2632 31.0946C15.602 31.1072 15.7024 31.1281 15.9074 31.2285Z" fill="white"/>
</svg>
