<svg width="37" height="45" viewBox="0 0 37 45" fill="none" xmlns="http://www.w3.org/2000/svg">
<path d="M10.629 0.443031C10.1071 1.01244 10.1071 1.10734 10.6528 1.77165C11.2222 2.45969 11.3645 2.43597 12.0763 1.7242L12.622 1.13107L12.0763 0.537933C11.412 -0.150104 11.1747 -0.173829 10.629 0.443031ZM11.7679 1.3446C11.5543 1.65303 11.3882 1.67675 10.9375 1.39205C10.6528 1.20224 10.629 1.10734 10.9137 0.775187C11.1984 0.443031 11.2696 0.443031 11.578 0.751462C11.7679 0.941265 11.839 1.20224 11.7679 1.3446Z" fill="white"/>
<path d="M23.9152 0.442882C23.3695 1.03602 23.3695 1.17837 24.0812 1.84268L24.6744 2.38837L25.2912 1.74778L25.9318 1.13092L25.3861 0.537784C24.7218 -0.150253 24.4608 -0.173979 23.9152 0.442882ZM25.0303 1.10719C25.0303 1.297 24.9354 1.4868 24.793 1.53425C24.4134 1.65288 23.8914 1.2021 24.0812 0.917391C24.2948 0.537784 25.0303 0.703862 25.0303 1.10719Z" fill="white"/>
<path d="M5.48048 3.50345C5.07715 3.90678 4.745 4.26266 4.745 4.33384C4.745 4.52364 5.95499 5.63873 6.16852 5.63873C6.4295 5.63873 7.59205 4.59481 7.59205 4.35756C7.59205 4.26266 7.28361 3.85933 6.90401 3.50345L6.21597 2.81541L5.48048 3.50345ZM6.66675 3.9305C7.11754 4.38129 7.11754 4.38129 6.66675 4.80834C6.2397 5.18795 6.14479 5.18795 5.81264 4.85579C5.38558 4.40501 5.36186 4.28638 5.76519 3.85933C6.12107 3.43227 6.09734 3.43227 6.66675 3.9305Z" fill="white"/>
<path d="M15.8485 3.26625C15.3503 3.52723 14.6623 4.12037 14.3064 4.57115C13.9268 5.04565 13.4285 5.40154 13.1438 5.40154C12.4083 5.40154 11.5305 6.18447 11.056 7.22839C10.7476 7.91643 10.368 8.27231 9.53757 8.67564C8.65973 9.07898 8.04287 9.69584 6.69052 11.4752C4.3417 14.5358 4.38915 14.6544 7.92424 14.6544H10.5815L11.8627 15.9593C12.6693 16.766 13.5234 17.3829 14.0691 17.5489C14.5436 17.6913 14.947 17.9286 14.947 18.0472C14.947 18.1658 15.1368 18.4268 15.3503 18.5929C15.7536 18.8538 15.4927 19.6131 12.005 28.2728C9.11051 35.4616 8.28012 37.7867 8.39875 38.2612C8.58855 39.0442 9.91718 39.661 12.8354 40.3728L14.9232 40.871L14.9944 41.7014C15.0419 42.3657 15.1842 42.5555 15.6113 42.603C15.9197 42.6504 16.1807 42.5318 16.2519 42.3183C16.323 42.1048 16.4179 41.7726 16.4891 41.5828C16.7026 40.8473 17.2958 41.5116 17.367 42.603C17.4381 43.6232 17.4856 43.7181 18.0313 43.7181C18.577 43.7181 18.6244 43.6232 18.743 42.4369C18.8854 41.0134 19.3124 40.61 19.692 41.5828C20.0005 42.4132 20.9732 42.342 21.0681 41.4642C21.1393 40.9185 21.3291 40.8236 23.2034 40.3728C26.1216 39.661 27.474 39.0442 27.6638 38.285C27.7824 37.8105 26.9046 35.3905 24.0101 28.2254C20.4987 19.4944 20.2377 18.7827 20.6648 18.5929C20.902 18.4742 21.1156 18.2607 21.1156 18.0946C21.1156 17.9523 21.5189 17.6913 22.0409 17.5489C22.6103 17.3591 23.3932 16.7897 24.1762 15.9593L25.4099 14.6544H27.9722C29.9414 14.6544 30.6057 14.5833 30.843 14.2986C31.1752 13.8952 31.1752 13.919 29.2771 11.4515C27.5214 9.17388 27.0707 8.74682 26.1928 8.50957C25.6709 8.36721 25.4336 8.10624 25.1963 7.39447C24.8405 6.25565 23.9152 5.40154 23.0611 5.40154C22.6103 5.40154 22.2069 5.14056 21.7324 4.54742C20.4038 2.88664 17.6991 2.29351 15.8485 3.26625ZM19.6209 3.52723C20.2615 3.76448 21.5901 4.85585 21.5901 5.16428C21.5901 5.23546 20.0005 5.30664 18.0313 5.28291C16.0858 5.28291 14.4725 5.21173 14.4725 5.14056C14.4725 4.87958 15.8011 3.76448 16.3705 3.52723C17.1772 3.2188 18.7905 3.2188 19.6209 3.52723ZM24.2236 6.58781C24.4371 6.91996 24.6981 7.4182 24.793 7.7029L24.9354 8.24858H18.055H11.1509L11.5068 7.34702C12.1236 5.85232 12.0999 5.85232 18.2448 5.9235L23.7965 5.99467L24.2236 6.58781ZM26.0267 8.98407C26.7385 9.24505 27.901 10.2415 28.2569 10.9058C28.4705 11.3092 27.9248 11.3329 18.0313 11.3329C12.1948 11.3329 7.59209 11.238 7.59209 11.1194C7.59209 10.716 9.46639 9.0078 10.0121 8.88917C11.2458 8.65192 25.3862 8.72309 26.0267 8.98407ZM29.7516 12.8513C30.2261 13.397 30.6057 13.9427 30.6057 14.0376C30.6057 14.1088 24.9591 14.1799 18.0313 14.1799C11.1272 14.1799 5.4568 14.1088 5.4568 14.0139C5.4568 13.9427 5.81268 13.4207 6.23974 12.8513L6.99895 11.8311L17.9601 11.8074H28.9212L29.7516 12.8513ZM14.1166 14.8917C14.2115 15.0341 13.9979 15.129 13.6421 15.129C12.7405 15.129 13.0252 15.6984 13.9505 15.7933C14.6385 15.8644 15.0656 16.3152 14.4487 16.3152C14.3301 16.3152 14.2827 16.4101 14.3538 16.5525C14.425 16.6711 14.7097 16.7897 14.9707 16.7897C15.2079 16.7897 15.4215 16.9084 15.4215 17.0507C15.4215 17.2405 15.113 17.288 14.5436 17.1931C13.9505 17.0982 13.3336 16.7186 12.6456 16.0305C12.0762 15.4848 11.6254 14.9392 11.6254 14.8443C11.6254 14.5595 13.9505 14.607 14.1166 14.8917ZM17.6754 14.8917C17.7703 15.0341 17.2721 15.129 16.3942 15.129C15.5876 15.129 14.947 15.0341 14.947 14.8917C14.947 14.7493 15.5164 14.6544 16.2281 14.6544C16.9399 14.6544 17.6042 14.7493 17.6754 14.8917ZM21.1156 14.8917C21.1156 15.0103 20.9258 15.129 20.6885 15.129C20.0479 15.129 19.8819 15.3899 20.3326 15.7221C20.6885 15.9831 20.5936 16.0542 19.7395 16.1966C18.6481 16.3627 17.7466 16.078 18.7193 15.8407C19.5497 15.6509 19.6446 15.129 18.8617 15.129C18.5058 15.129 18.2923 15.0341 18.3872 14.8917C18.4583 14.7493 19.1226 14.6544 19.8344 14.6544C20.5462 14.6544 21.1156 14.7493 21.1156 14.8917ZM24.4371 14.8443C24.4371 14.9392 23.9864 15.4848 23.4169 16.0305C22.7289 16.7186 22.112 17.0982 21.5189 17.1931C20.9495 17.288 20.6411 17.2405 20.6411 17.0507C20.6411 16.9084 20.8546 16.7897 21.0919 16.7897C21.7324 16.7897 21.9222 16.4101 21.4003 16.1729C21.0919 16.0305 21.2105 15.9593 21.8985 15.8644C22.8475 15.7221 23.1085 15.295 22.3018 15.1764C22.0409 15.129 21.8748 14.9866 21.946 14.868C22.112 14.607 24.4371 14.5833 24.4371 14.8443ZM17.5093 16.1729C16.9874 16.5525 16.9636 16.7897 17.4381 16.7897C17.6279 16.7897 17.794 16.8846 17.794 17.027C17.794 17.1456 17.4856 17.2642 17.106 17.2642C16.7026 17.2642 16.323 17.1456 16.2519 17.027C16.1807 16.8846 16.2281 16.7897 16.3705 16.7897C16.5366 16.7897 16.6077 16.6474 16.5366 16.4813C16.4891 16.339 16.2756 16.2203 16.0621 16.2678C15.8723 16.2915 15.635 16.2203 15.5401 16.078C15.4452 15.9356 15.8485 15.8407 16.6552 15.8407C17.7466 15.8644 17.8652 15.8882 17.5093 16.1729ZM19.8107 17.027C19.7395 17.1456 19.3599 17.2642 18.9566 17.2642C18.577 17.2642 18.2685 17.1456 18.2685 17.027C18.2685 16.8846 18.6481 16.7897 19.1226 16.7897C19.6209 16.7897 19.9056 16.8846 19.8107 17.027ZM20.6411 17.976C20.6411 18.1184 19.6209 18.2133 18.0313 18.2133C16.4417 18.2133 15.4215 18.1184 15.4215 17.976C15.4215 17.8337 16.4417 17.7388 18.0313 17.7388C19.6209 17.7388 20.6411 17.8337 20.6411 17.976ZM17.5568 18.9013C17.5568 19.0199 17.3907 19.2335 17.2009 19.3995C16.6315 19.874 16.5128 21.1552 16.9636 22.0805C17.6279 23.504 19.0515 23.9311 20.9969 23.3379C21.424 23.1956 21.685 23.7413 23.7016 28.7948C24.9354 31.9265 25.8369 34.4652 25.7183 34.5601C24.9828 35.2481 20.4038 36.2446 18.055 36.2446C15.4689 36.2446 11.1509 35.2956 10.3442 34.5601C10.2256 34.4652 10.5578 33.3026 11.1034 31.9265C11.6491 30.5742 12.1948 29.1744 12.3134 28.8185L12.5744 28.1542L13.3811 28.9846C14.4013 29.9811 15.3266 30.2183 16.4654 29.7438C18.3397 28.9609 18.7905 26.6832 17.3432 25.236C16.6789 24.5954 16.4417 24.5005 15.3266 24.5005L14.0691 24.5242L15.2554 21.606C16.2993 19.0199 16.4891 18.6878 16.9874 18.6878C17.2958 18.6878 17.5568 18.7827 17.5568 18.9013ZM20.0954 19.9927C20.2615 20.5146 20.5699 21.2501 20.7597 21.6534C21.0681 22.294 21.0681 22.3889 20.7122 22.6499C20.4987 22.816 19.9056 22.9583 19.4073 22.9583C17.9126 22.9583 16.9636 21.5111 17.5568 20.1113C17.9126 19.2572 18.4109 18.9013 19.1938 18.9962C19.6209 19.0199 19.8344 19.2809 20.0954 19.9927ZM16.8687 25.7817C18.577 27.4899 16.6077 30.1234 14.4725 29.0083C13.0964 28.2966 12.8829 26.873 13.9742 25.7817C14.9232 24.8564 15.9197 24.8564 16.8687 25.7817ZM10.6764 35.4142C11.056 35.604 12.3134 36.0073 13.4523 36.2683C15.2079 36.6954 16.0383 36.7428 18.743 36.6479C21.7799 36.553 23.5356 36.1971 25.8607 35.2007C26.1216 35.082 26.3589 35.3905 26.7622 36.4344C27.0707 37.1936 27.2367 37.9765 27.1418 38.2138C26.952 38.7357 25.7895 39.234 23.3932 39.8034C21.5664 40.2542 20.8783 40.2542 21.5901 39.8034C21.7799 39.6848 21.8511 39.5187 21.7562 39.4001C21.3528 39.0204 20.7597 39.7559 20.6885 40.7287C20.5936 41.82 20.4038 41.9624 20.0479 41.1795C19.9056 40.871 19.6209 40.61 19.3836 40.5626C18.6481 40.4202 18.2685 40.9659 18.2685 42.1997C18.2685 43.6706 17.8415 43.7181 17.7466 42.2708C17.6991 41.5353 17.533 41.0608 17.2721 40.8948C16.7264 40.5626 16.0383 40.9659 15.9434 41.6777C15.8011 42.6267 15.4215 42.1759 15.4215 41.0608C15.4215 40.0169 14.947 39.0916 14.425 39.0916C14.1166 39.0916 14.2115 39.7559 14.5436 39.8746C14.686 39.922 14.7572 40.0406 14.686 40.1118C14.5436 40.3016 11.1034 39.495 9.9409 38.9967C9.46639 38.8069 8.99189 38.451 8.92071 38.2138C8.77836 37.8579 9.63247 35.0583 9.89345 35.0583C9.9409 35.0583 10.2968 35.2244 10.6764 35.4142Z" fill="white"/>
<path d="M16.5366 3.90688C16.2994 3.97806 16.157 4.14414 16.2045 4.28649C16.2756 4.45257 16.4654 4.52374 16.6315 4.47629C16.8213 4.42884 17.2484 4.33394 17.628 4.26276C17.9839 4.21531 18.2686 4.07296 18.2686 3.95433C18.2686 3.7408 17.2958 3.71708 16.5366 3.90688Z" fill="white"/>
<path d="M18.9802 4.19146C18.9802 4.45244 19.9055 4.7846 20.0953 4.61852C20.1665 4.54735 20.1428 4.38127 20.0479 4.23892C19.8581 3.93048 18.9802 3.88303 18.9802 4.19146Z" fill="white"/>
<path d="M13.6658 6.46912C13.4523 6.68265 13.2862 6.94363 13.2862 7.06226C13.2862 7.41814 14.0454 8.035 14.425 7.96382C14.9944 7.84519 15.3503 7.13343 15.0419 6.6352C14.686 6.08951 14.1403 6.01834 13.6658 6.46912ZM14.4962 7.13343C14.1878 7.44186 13.8793 7.20461 14.1166 6.84873C14.1878 6.70637 14.3776 6.65892 14.5199 6.7301C14.6623 6.825 14.6623 6.96735 14.4962 7.13343Z" fill="white"/>
<path d="M17.5094 6.37431C16.94 6.68274 16.9637 7.46568 17.5331 7.77411C18.2449 8.12999 18.4821 8.05881 18.7905 7.3945C19.0515 6.87254 19.0278 6.73019 18.6245 6.44548C18.1025 6.06588 18.0313 6.04215 17.5094 6.37431ZM18.2686 7.06234C18.2686 7.18097 18.1737 7.2996 18.0313 7.2996C17.9127 7.2996 17.7941 7.18097 17.7941 7.06234C17.7941 6.91999 17.9127 6.82509 18.0313 6.82509C18.1737 6.82509 18.2686 6.91999 18.2686 7.06234Z" fill="white"/>
<path d="M21.1631 6.3979C20.6174 6.94359 20.9971 8.01123 21.7325 8.01123C22.0647 8.01123 22.7765 7.37064 22.7765 7.06221C22.7765 6.75378 22.0647 6.1132 21.7325 6.1132C21.5902 6.1132 21.3292 6.23182 21.1631 6.3979ZM22.0647 7.08594C22.0647 7.20457 21.8986 7.29947 21.7088 7.29947C21.3529 7.29947 21.2343 7.01476 21.4953 6.75378C21.6851 6.56398 22.0647 6.77751 22.0647 7.08594Z" fill="white"/>
<path d="M15.7062 22.982C15.73 23.2905 15.896 23.5277 16.0147 23.4803C16.3705 23.4091 16.2994 22.6499 15.9435 22.5313C15.73 22.4601 15.6351 22.6024 15.7062 22.982Z" fill="white"/>
<path d="M18.5057 24.8327C18.5057 24.9513 18.6718 25.0936 18.8616 25.1885C19.1226 25.2834 19.2175 25.6868 19.2175 26.707C19.2175 28.3203 19.5734 28.866 20.38 28.4152C20.7122 28.2491 20.8783 27.917 20.8783 27.4662C20.8783 27.0154 21.0444 26.6832 21.3528 26.5172C21.9934 26.185 21.7324 25.7579 21.0444 26.0189C20.6885 26.1613 20.4749 26.4697 20.4038 26.9917C20.3326 27.4424 20.1428 27.8221 20.0004 27.8932C19.7632 27.9644 19.692 27.5848 19.692 26.5883C19.692 25.8054 19.5734 25.0699 19.4073 24.9038C19.0751 24.5717 18.5057 24.5242 18.5057 24.8327Z" fill="white"/>
<path d="M21.9223 28.0356C21.8274 28.2728 21.8748 28.5576 22.0172 28.6999C22.207 28.8897 22.3256 28.866 22.4443 28.5576C22.5392 28.3203 22.4917 28.0356 22.3494 27.8932C22.1596 27.7034 22.0409 27.7272 21.9223 28.0356Z" fill="white"/>
<path d="M19.0753 30.4081C18.411 31.0724 18.2686 31.3808 18.2686 32.2587C18.2686 33.4449 18.6957 34.2041 19.6921 34.7024C20.57 35.1532 21.4241 35.1532 22.3019 34.7024C23.2984 34.2041 23.7255 33.4449 23.7255 32.2587C23.7255 31.3808 23.5831 31.0724 22.9188 30.4081C22.2308 29.72 21.9461 29.6014 20.997 29.6014C20.048 29.6014 19.7633 29.72 19.0753 30.4081ZM22.4917 30.8589C23.2272 31.5469 23.2035 32.9941 22.4206 33.7534C21.6376 34.56 20.3565 34.56 19.5498 33.7534C19.0753 33.2789 18.9567 32.9704 19.0278 32.1638C19.0753 31.3334 19.2414 31.0724 19.9057 30.6216C20.8072 30.0047 21.6139 30.0759 22.4917 30.8589Z" fill="white"/>
<path d="M19.5733 31.2622C19.4784 31.4283 19.5021 31.6418 19.6445 31.7841C19.9766 32.1163 20.7121 31.8316 20.5935 31.4283C20.4511 31.0486 19.7868 30.93 19.5733 31.2622Z" fill="white"/>
<path d="M21.8274 31.8554C21.8274 32.235 21.9697 32.4485 22.1833 32.4485C22.3968 32.4485 22.5392 32.235 22.5392 31.8554C22.5392 31.4757 22.3968 31.2622 22.1833 31.2622C21.9697 31.2622 21.8274 31.4757 21.8274 31.8554Z" fill="white"/>
<path d="M20.5462 33.2078C20.1903 33.706 20.1903 33.7535 20.5462 33.8247C20.7597 33.8721 21.0919 33.7535 21.2817 33.5874C21.5664 33.279 21.5664 33.2078 21.258 32.9468C20.997 32.7096 20.8546 32.757 20.5462 33.2078Z" fill="white"/>
<path d="M17.201 30.6216C16.9875 31.1436 17.1536 32.0926 17.4383 32.0452C17.5806 32.0214 17.6992 31.713 17.7467 31.3571C17.8416 30.5979 17.4145 30.0285 17.201 30.6216Z" fill="white"/>
<path d="M12.5744 30.7402C12.5744 30.8351 12.8117 31.0249 13.1201 31.1435C13.5471 31.3333 13.6658 31.6181 13.7607 32.6857C13.8556 33.6822 13.9742 34.0143 14.3064 34.0618C14.9707 34.2041 15.4215 33.6584 15.4215 32.7569C15.4215 32.2112 15.5164 31.9739 15.7299 32.0214C15.896 32.0926 16.062 32.7331 16.1332 33.6584C16.2281 34.8684 16.3467 35.1769 16.6789 35.248C17.3907 35.3904 17.794 34.8447 17.794 33.7296C17.794 32.9704 17.6991 32.6857 17.4381 32.6857C17.1771 32.6857 17.0822 32.9704 17.0822 33.7533C17.0822 35.4378 16.6314 34.9871 16.5603 33.2077C16.4891 31.7604 16.4416 31.6181 15.9434 31.5469C15.1605 31.4282 14.7097 31.9028 14.7097 32.8518C14.7097 33.3263 14.6148 33.611 14.4724 33.5161C14.3538 33.4449 14.2352 32.923 14.2352 32.3535C14.2352 31.6655 14.0928 31.2147 13.8081 30.9537C13.3573 30.5504 12.5744 30.4081 12.5744 30.7402Z" fill="white"/>
<path d="M11.3881 33.611C11.3881 34.1329 11.7677 34.4651 11.9575 34.1329C12.1473 33.8482 11.8864 33.1602 11.6017 33.1602C11.483 33.1602 11.3881 33.3737 11.3881 33.611Z" fill="white"/>
<path d="M18.1498 19.8741C18.0549 20.0401 18.0787 20.2537 18.221 20.396C18.5532 20.7282 19.2887 20.4435 19.17 20.0401C19.0277 19.6605 18.3634 19.5419 18.1498 19.8741Z" fill="white"/>
<path d="M19.0752 21.8906C18.9803 22.1042 19.0041 22.3414 19.0752 22.4363C19.2888 22.6261 20.0717 22.1516 20.0005 21.8669C19.9056 21.4873 19.2176 21.4873 19.0752 21.8906Z" fill="white"/>
<path d="M15.4215 25.924C15.4215 26.4222 16.2756 26.8493 16.4417 26.4222C16.5841 26.0426 16.1807 25.5681 15.7299 25.5681C15.5639 25.5681 15.4215 25.7342 15.4215 25.924Z" fill="white"/>
<path d="M14.0217 26.9679C13.8319 27.0865 13.7607 27.3475 13.8556 27.5848C13.9743 27.9169 14.0692 27.9407 14.3539 27.7034C14.7335 27.395 14.8521 26.7544 14.5437 26.7544C14.425 26.7544 14.2115 26.8493 14.0217 26.9679Z" fill="white"/>
<path d="M15.896 28.0592C15.896 28.4626 16.0146 28.6524 16.2044 28.5812C16.3468 28.5338 16.4891 28.2965 16.4891 28.0592C16.4891 27.822 16.3468 27.5847 16.2044 27.5136C16.0146 27.4661 15.896 27.6559 15.896 28.0592Z" fill="white"/>
<path d="M14.4726 28.178C14.1641 28.3678 14.1878 28.4152 14.5437 28.4152C14.7573 28.4152 14.9471 28.2966 14.9471 28.178C14.9471 27.8933 14.9233 27.8933 14.4726 28.178Z" fill="white"/>
<path d="M28.9687 3.52717L28.2095 4.28638L28.8501 4.9507C29.6568 5.78109 29.7042 5.78109 30.4634 5.06932C31.2227 4.38129 31.2227 4.26266 30.3923 3.43227L29.7042 2.76796L28.9687 3.52717ZM30.2262 3.9305C30.5821 4.35756 30.5821 4.40501 30.1313 4.80834C29.6568 5.2354 29.6331 5.2354 29.3246 4.80834C29.0874 4.45246 29.0636 4.26266 29.2772 3.9305C29.6093 3.38482 29.728 3.40854 30.2262 3.9305Z" fill="white"/>
<path d="M8.6835 15.817C7.85311 16.1492 8.63605 16.2678 9.60879 15.9594C10.5104 15.6747 10.5104 15.651 9.84604 15.651C9.46643 15.651 8.92075 15.7221 8.6835 15.817Z" fill="white"/>
<path d="M25.6945 15.7457C25.7657 15.8169 26.2165 15.9593 26.6673 16.0779C27.5926 16.2914 28.0908 15.983 27.2129 15.7457C26.5249 15.5797 25.5047 15.5559 25.6945 15.7457Z" fill="white"/>
<path d="M10.7476 16.9558C10.5815 17.0032 10.4391 17.1456 10.4391 17.2642C10.4391 17.5015 11.3407 17.2879 11.5305 17.0032C11.6729 16.766 11.2221 16.7422 10.7476 16.9558Z" fill="white"/>
<path d="M24.7692 17.1456C25.2912 17.5489 25.6234 17.5964 25.6234 17.2879C25.6234 17.0507 25.0539 16.7897 24.6032 16.7897C24.4371 16.7897 24.532 16.9558 24.7692 17.1456Z" fill="white"/>
<path d="M4.81622 20.2772C5.1721 20.3247 5.74151 20.3247 6.12112 20.2772C6.477 20.2298 6.16857 20.1823 5.45681 20.1823C4.74505 20.1823 4.43662 20.2298 4.81622 20.2772Z" fill="white"/>
<path d="M8.73097 20.5146C10.0833 20.9891 10.6765 22.0567 10.2019 23.1955C9.79861 24.1683 9.20548 24.453 7.3549 24.6428L5.81274 24.7851L7.5447 24.8089C9.18175 24.8563 9.32411 24.8089 9.98842 24.1683C10.5341 23.6226 10.6765 23.2667 10.6765 22.4838C10.6765 21.1789 9.67999 20.1112 8.49372 20.135L7.71078 20.1587L8.73097 20.5146Z" fill="white"/>
<path d="M26.5962 20.4435C25.4574 21.0841 25.1015 22.4364 25.7421 23.6702C26.2641 24.6666 26.786 24.8564 28.7552 24.8327L30.4872 24.7853L28.779 24.6192C27.4266 24.5006 26.9284 24.3582 26.4539 23.9074C25.2676 22.7923 25.9556 20.8706 27.7588 20.3723L28.5892 20.1588L27.8774 20.1351C27.4978 20.1351 26.9047 20.2774 26.5962 20.4435Z" fill="white"/>
<path d="M30.0837 20.2772C30.5108 20.3247 31.1514 20.3247 31.5073 20.2772C31.8632 20.2298 31.5073 20.1823 30.7243 20.1823C29.9414 20.1823 29.6567 20.2298 30.0837 20.2772Z" fill="white"/>
<path d="M0.474493 25.0936C-0.213544 25.7816 -0.142368 26.8492 0.616845 27.4424C1.18626 27.8932 1.56586 27.9406 4.03331 27.9406C6.88036 27.9406 7.09388 28.0118 7.42604 28.9608C7.54467 29.2455 7.37859 29.5777 6.99898 29.981C6.47702 30.4792 6.21604 30.5504 4.50781 30.5504C2.91821 30.5504 2.5386 30.6216 2.13527 31.0249C1.35233 31.8079 1.63704 33.2314 2.68096 33.611C3.51135 33.9431 3.70115 33.611 2.87076 33.2551C2.27762 33.0179 2.13527 32.8043 2.13527 32.2586C2.13527 31.0961 2.75213 30.7877 4.93487 30.7877C6.57193 30.7877 6.95153 30.7165 7.35486 30.3132C8.0429 29.6251 7.97172 28.5575 7.21251 27.9643C6.6431 27.5136 6.26349 27.4661 3.77233 27.4661C1.0439 27.4661 0.949001 27.4424 0.569394 26.873C0.213513 26.3273 0.213513 26.2324 0.569394 25.6867C0.996452 25.0224 1.42351 24.88 3.44017 24.7851C4.65017 24.714 4.55526 24.6902 2.91821 24.6665C1.23371 24.6191 0.877825 24.6902 0.474493 25.0936Z" fill="white"/>
<path d="M33.2867 24.8326C35.2085 24.975 35.8253 25.3309 35.8253 26.2799C35.8253 27.2289 35.0899 27.4662 32.2191 27.4662C29.206 27.4662 28.6365 27.6797 28.3281 28.9371C28.2332 29.4354 28.3281 29.7201 28.8026 30.1709C29.3483 30.7403 29.5856 30.7877 31.3175 30.7877C32.9071 30.7877 33.2867 30.8589 33.6901 31.2622C33.951 31.5232 34.1646 31.8791 34.1646 32.0452C34.1646 32.5197 33.4528 33.3975 33.0732 33.3975C32.8834 33.3975 32.741 33.4924 32.741 33.6348C32.741 34.0144 33.0969 33.9195 33.785 33.3738C34.2357 33.0179 34.4018 32.662 34.4018 32.1163C34.4018 30.8589 33.8324 30.5505 31.6022 30.5505C29.9652 30.5505 29.5856 30.4793 29.1822 30.076C28.6603 29.554 28.5891 28.9846 28.945 28.4152C29.1111 28.1305 29.8703 28.0356 32.2428 27.9407C35.5406 27.822 35.8965 27.6797 36.1812 26.5171C36.2761 26.0901 36.1812 25.7105 35.8253 25.2597C35.3508 24.6428 35.2322 24.6191 33.3816 24.6666L31.4361 24.6903L33.2867 24.8326Z" fill="white"/>
<path d="M4.62653 33.6348C4.6977 33.7534 4.98241 33.872 5.24339 33.872C5.48064 33.872 5.69417 33.7534 5.69417 33.6348C5.69417 33.4924 5.40947 33.3975 5.07731 33.3975C4.74515 33.3975 4.53163 33.4924 4.62653 33.6348Z" fill="white"/>
<path d="M30.4871 33.6348C30.5583 33.7534 30.843 33.872 31.104 33.872C31.3412 33.872 31.5548 33.7534 31.5548 33.6348C31.5548 33.4924 31.2701 33.3975 30.9379 33.3975C30.6058 33.3975 30.3922 33.4924 30.4871 33.6348Z" fill="white"/>
<path d="M19.9531 43.3384C19.3363 44.4773 20.0006 45.5212 20.831 44.7145C21.1157 44.4061 21.1631 44.1688 20.9733 43.6706C20.6886 42.8639 20.2615 42.7216 19.9531 43.3384ZM20.6412 44.0739C20.6412 44.3349 20.5462 44.5484 20.4039 44.5484C20.2853 44.5484 20.1666 44.3349 20.1666 44.0739C20.1666 43.8129 20.2853 43.5994 20.4039 43.5994C20.5462 43.5994 20.6412 43.8129 20.6412 44.0739Z" fill="white"/>
</svg>
