<svg width="29" height="26" viewBox="0 0 29 26" fill="none" xmlns="http://www.w3.org/2000/svg">
<path d="M25.8882 14.7705L28.2055 4.57446C28.3729 3.83829 27.8133 3.13726 27.0583 3.13726H7.80432L7.355 0.940687C7.24304 0.393186 6.76128 0 6.2024 0H1.17647C0.526716 0 0 0.526716 0 1.17647V1.96078C0 2.61054 0.526716 3.13726 1.17647 3.13726H4.60211L8.04564 19.9723C7.22182 20.4461 6.66667 21.3344 6.66667 22.3529C6.66667 23.869 7.89569 25.098 9.41177 25.098C10.9278 25.098 12.1569 23.869 12.1569 22.3529C12.1569 21.5846 11.8408 20.8904 11.3322 20.3922H21.609C21.1003 20.8904 20.7843 21.5846 20.7843 22.3529C20.7843 23.869 22.0133 25.098 23.5294 25.098C25.0455 25.098 26.2745 23.869 26.2745 22.3529C26.2745 21.2661 25.6428 20.3269 24.7265 19.8821L24.997 18.6921C25.1643 17.9559 24.6047 17.2549 23.8498 17.2549H10.692L10.3712 15.6863H24.741C25.2903 15.6863 25.7665 15.3062 25.8882 14.7705Z" fill="white"/>
</svg>
