<svg width="9" height="9" viewBox="0 0 9 9" fill="none" xmlns="http://www.w3.org/2000/svg">
<circle cx="3.97763" cy="5.11435" r="2.84091" fill="black"/>
<path fill-rule="evenodd" clip-rule="evenodd" d="M4.16667 0C1.86553 0 0 1.86553 0 4.16667C0 6.4678 1.86553 8.33333 4.16667 8.33333C6.4678 8.33333 8.33333 6.4678 8.33333 4.16667C8.33333 1.86553 6.4678 0 4.16667 0ZM5.57083 3.29811C5.63983 3.22667 5.67801 3.13098 5.67715 3.03167C5.67629 2.93235 5.63645 2.83734 5.56622 2.76711C5.49599 2.69688 5.40098 2.65705 5.30167 2.65618C5.20235 2.65532 5.10667 2.6935 5.03523 2.7625L4.16667 3.63106L3.29811 2.7625C3.26316 2.72632 3.22137 2.69746 3.17515 2.67761C3.12894 2.65776 3.07924 2.64731 3.02894 2.64687C2.97864 2.64644 2.92877 2.65602 2.88221 2.67507C2.83566 2.69411 2.79337 2.72224 2.75781 2.75781C2.72224 2.79337 2.69411 2.83566 2.67507 2.88221C2.65602 2.92877 2.64644 2.97864 2.64687 3.02894C2.64731 3.07924 2.65776 3.12894 2.67761 3.17515C2.69746 3.22137 2.72632 3.26316 2.7625 3.29811L3.63106 4.16667L2.7625 5.03523C2.72632 5.07017 2.69746 5.11197 2.67761 5.15818C2.65776 5.20439 2.64731 5.2541 2.64687 5.30439C2.64644 5.35469 2.65602 5.40457 2.67507 5.45112C2.69411 5.49767 2.72224 5.53996 2.75781 5.57553C2.79337 5.61109 2.83566 5.63922 2.88221 5.65827C2.92877 5.67731 2.97864 5.6869 3.02894 5.68646C3.07924 5.68602 3.12894 5.67557 3.17515 5.65572C3.22137 5.63587 3.26316 5.60701 3.29811 5.57083L4.16667 4.70227L5.03523 5.57083C5.10667 5.63983 5.20235 5.67801 5.30167 5.67715C5.40098 5.67629 5.49599 5.63645 5.56622 5.56622C5.63645 5.49599 5.67629 5.40098 5.67715 5.30167C5.67801 5.20235 5.63983 5.10667 5.57083 5.03523L4.70227 4.16667L5.57083 3.29811Z" fill="#FC5775"/>
</svg>
