<svg width="32" height="50" viewBox="0 0 32 50" fill="none" xmlns="http://www.w3.org/2000/svg">
<path d="M19.6923 49.2427H9.84615C9.19331 49.2427 8.56721 48.9833 8.10558 48.5217C7.64396 48.0601 7.38462 47.434 7.38462 46.7811V31.5196H2.46154C1.8087 31.5196 1.1826 31.2603 0.720968 30.7986C0.25934 30.337 0 29.7109 0 29.0581V20.1965C0 19.5437 0.25934 18.9176 0.720968 18.456C1.1826 17.9943 1.8087 17.735 2.46154 17.735H7.38462V13.5504C7.55716 9.79986 9.20769 6.27023 11.9753 3.73323C14.743 1.19624 18.4025 -0.141718 22.1538 0.0119073H29.5385C30.1913 0.0119073 30.8174 0.271247 31.279 0.732875C31.7407 1.1945 32 1.82061 32 2.47345V11.335C32 11.9878 31.7407 12.6139 31.279 13.0756C30.8174 13.5372 30.1913 13.7965 29.5385 13.7965H22.1538V17.735H29.5385C29.9185 17.7321 30.2941 17.8173 30.6358 17.9838C30.9774 18.1504 31.2759 18.3938 31.5077 18.695C31.737 19.0007 31.8919 19.3556 31.9603 19.7316C32.0287 20.1076 32.0085 20.4943 31.9015 20.8611L29.44 29.7227C29.2911 30.2551 28.9673 30.7219 28.5208 31.0479C28.0742 31.3739 27.5309 31.54 26.9785 31.5196H22.1538V46.7811C22.1538 47.434 21.8945 48.0601 21.4329 48.5217C20.9713 48.9833 20.3451 49.2427 19.6923 49.2427ZM12.3077 44.3196H17.2308V29.0581C17.2308 28.4052 17.4901 27.7791 17.9517 27.3175C18.4134 26.8559 19.0395 26.5965 19.6923 26.5965H25.2062L26.2892 22.6581H19.6923C19.0395 22.6581 18.4134 22.3987 17.9517 21.9371C17.4901 21.4755 17.2308 20.8494 17.2308 20.1965V13.5504C17.294 12.2878 17.8404 11.098 18.7569 10.2273C19.6734 9.35662 20.8897 8.87186 22.1538 8.87345H27.0769V4.93498H22.1538C19.7091 4.78604 17.3042 5.60706 15.4609 7.21994C13.6176 8.83282 12.4846 11.1075 12.3077 13.5504V20.1965C12.3077 20.8494 12.0484 21.4755 11.5867 21.9371C11.1251 22.3987 10.499 22.6581 9.84615 22.6581H4.92308V26.5965H9.84615C10.499 26.5965 11.1251 26.8559 11.5867 27.3175C12.0484 27.7791 12.3077 28.4052 12.3077 29.0581V44.3196Z" fill="#FC5775"/>
</svg>
