<svg width="48" height="48" viewBox="0 0 48 48" fill="none" xmlns="http://www.w3.org/2000/svg">
<path d="M23.8065 0C10.6598 0 0 10.6598 0 23.8065C0 36.9531 10.6598 47.6129 23.8065 47.6129C36.9531 47.6129 47.6129 36.9531 47.6129 23.8065C47.6129 10.6598 36.9531 0 23.8065 0ZM25.746 29.6943C23.4132 32.9783 18.7263 33.9348 15.0703 32.5266C11.4037 31.1291 8.79988 27.2552 9.11341 23.3069C9.19312 18.4766 13.6409 14.2414 18.4713 14.4061C20.7881 14.2998 22.9668 15.3041 24.7417 16.723C23.9818 17.5838 23.2007 18.4128 22.3611 19.1833C20.2302 17.7114 17.1959 17.2916 15.065 18.992C12.0148 21.1017 11.8767 26.0808 14.81 28.3499C17.6635 30.9378 23.0572 29.6518 23.849 25.6876C22.0635 25.661 20.2674 25.6876 18.4819 25.6291C18.4766 24.561 18.4713 23.4982 18.4766 22.4301C21.463 22.4195 24.4548 22.4142 27.4465 22.4408C27.6219 24.9543 27.2871 27.6219 25.746 29.6943ZM38.6323 25.1084C37.7396 25.119 36.8469 25.1243 35.9541 25.1296C35.9435 26.0224 35.9382 26.9151 35.9382 27.8078H33.2653C33.2546 26.9151 33.2546 26.0277 33.2493 25.1349C32.3566 25.1243 31.4638 25.119 30.5711 25.1084V22.4461C31.4638 22.4355 32.3566 22.4301 33.2493 22.4301C33.2546 21.5374 33.2653 20.6447 33.2706 19.7519H35.9382L35.9541 22.4301C36.8469 22.4408 37.7396 22.4408 38.6323 22.4461V25.1084Z" fill="#FC5775"/>
</svg>
