<svg width="44" height="43" viewBox="0 0 44 43" fill="none" xmlns="http://www.w3.org/2000/svg">
<path d="M22.2515 10.4606C16.1515 10.4606 11.2284 15.3837 11.2284 21.4839C11.2284 27.584 16.1515 32.5072 22.2515 32.5072C28.3516 32.5072 33.2746 27.584 33.2746 21.4839C33.2746 15.3837 28.3516 10.4606 22.2515 10.4606ZM22.2515 28.6482C18.3067 28.6482 15.0873 25.4288 15.0873 21.4839C15.0873 17.5389 18.3067 14.3195 22.2515 14.3195C26.1964 14.3195 29.4157 17.5389 29.4157 21.4839C29.4157 25.4288 26.1964 28.6482 22.2515 28.6482ZM33.7261 7.44004C32.3019 7.44004 31.1517 8.59021 31.1517 10.0145C31.1517 11.4387 32.3019 12.5889 33.7261 12.5889C35.1503 12.5889 36.3005 11.4441 36.3005 10.0145C36.3009 9.67628 36.2346 9.34132 36.1054 9.02878C35.9762 8.71625 35.7865 8.43227 35.5474 8.19313C35.3083 7.95399 35.0243 7.76437 34.7118 7.63515C34.3992 7.50592 34.0643 7.43962 33.7261 7.44004ZM43.7388 21.4839C43.7388 18.5171 43.7657 15.5772 43.599 12.6158C43.4324 9.17604 42.6478 6.12327 40.1325 3.60795C37.6119 1.08727 34.5645 0.307951 31.1248 0.141338C28.1581 -0.0252744 25.2183 0.00159864 22.2569 0.00159864C19.2902 0.00159864 16.3503 -0.0252744 13.389 0.141338C9.94931 0.307951 6.89659 1.09264 4.38133 3.60795C1.86068 6.12864 1.08138 9.17604 0.914773 12.6158C0.748164 15.5826 0.775036 18.5225 0.775036 21.4839C0.775036 24.4453 0.748164 27.3906 0.914773 30.352C1.08138 33.7917 1.86606 36.8445 4.38133 39.3598C6.90197 41.8805 9.94931 42.6598 13.389 42.8264C16.3557 42.993 19.2956 42.9661 22.2569 42.9661C25.2236 42.9661 28.1635 42.993 31.1248 42.8264C34.5645 42.6598 37.6172 41.8751 40.1325 39.3598C42.6531 36.8391 43.4324 33.7917 43.599 30.352C43.771 27.3906 43.7388 24.4507 43.7388 21.4839ZM39.0092 34.1572C38.6169 35.1354 38.1439 35.8663 37.3861 36.6187C36.6283 37.3766 35.9028 37.8495 34.9246 38.2419C32.0976 39.3652 25.3849 39.1126 22.2515 39.1126C19.1182 39.1126 12.4001 39.3652 9.57309 38.2472C8.59493 37.8549 7.864 37.3819 7.11157 36.6241C6.35377 35.8663 5.88081 35.1407 5.48847 34.1626C4.37058 31.3301 4.62318 24.6173 4.62318 21.4839C4.62318 18.3505 4.37058 11.6322 5.48847 8.80519C5.88081 7.82702 6.35377 7.09607 7.11157 6.34363C7.86938 5.59118 8.59493 5.11284 9.57309 4.7205C12.4001 3.60258 19.1182 3.85519 22.2515 3.85519C25.3849 3.85519 32.103 3.60258 34.93 4.7205C35.9081 5.11284 36.6391 5.58581 37.3915 6.34363C38.1493 7.10145 38.6223 7.82702 39.0146 8.80519C40.1325 11.6322 39.8799 18.3505 39.8799 21.4839C39.8799 24.6173 40.1325 31.3301 39.0092 34.1572Z" fill="#FC5775"/>
</svg>
