<svg width="56" height="56" viewBox="0 0 56 56" fill="none" xmlns="http://www.w3.org/2000/svg">
<path d="M24.8046 22.2267C17.9669 21.8969 13.2126 24.3344 10.544 29.5417C6.54217 37.3502 9.85069 50.129 23.2032 50.129C36.5569 50.129 36.9424 37.2259 36.9424 35.873V20.7588C39.7992 22.567 42.2066 23.6562 44.1668 24.0255C46.1271 24.3937 47.372 24.5574 47.905 24.5156V16.9951C46.0922 16.7768 44.5245 16.3599 43.2018 15.7455C41.2171 14.8235 37.2838 12.2652 37.2838 8.51535C37.2862 8.53393 37.2862 7.56657 37.2838 5.61328H29.0178C28.9934 23.9803 28.9934 34.0672 29.0178 35.8742C29.0549 38.5846 26.9518 42.3774 22.6887 42.3774C18.4245 42.3774 16.3226 38.5881 16.3226 36.1448C16.3226 34.649 16.8358 32.4809 18.9598 30.8748C20.2198 29.9226 21.9676 29.5428 24.8046 29.5428V22.2267V22.2267Z" stroke="#FC5775" stroke-width="4.45123" stroke-linejoin="round"/>
</svg>
